<svg id="Calque_1" data-name="Calque 1" xmlns="http://www.w3.org/2000/svg" viewBox="0 0 104.38 116.78"><defs><style>.cls-1{fill:#404040;}</style></defs><title>book</title><path class="cls-1" d="M393.53,593.93a12.83,12.83,0,0,0-1.26-.44,3.65,3.65,0,0,1-2.31-2.2c-1.35-3.24-.54-6,1.62-8.55a5.3,5.3,0,0,0,1.06-5.49c-0.73-2.15-1.62-4.24-2.52-6.33-1.92-4.45-3.9-8.87-5.83-13.32-2.56-5.92-5.05-11.87-7.65-17.77-2.52-5.73-5.12-11.44-7.72-17.14q-2.69-5.89-5.5-11.72c-0.73-1.51-1.76-2.94-3.5-3.25a29,29,0,0,0-6.5-.57c-5.22.27-10.07,2.19-14.94,3.9q-6.8,2.39-13.49,5.06c-3.58,1.43-7.1,3-10.6,4.64-2.37,1.09-4.67,2.34-7,3.54-3.5,1.81-7,3.57-10.49,5.48a7.54,7.54,0,0,0-4,4.93c-0.62,2.73-1.16,5.48-1.73,8.22-0.21,1-.4,2-0.6,3v4a9.09,9.09,0,0,1,.51,1.5,36.27,36.27,0,0,0,4.58,11.9c3.47,6.21,7.13,12.32,10.51,18.58,4.8,8.87,9.36,17.87,14.13,26.76,2.29,4.26,4.83,8.39,7.25,12.59a4.72,4.72,0,0,0,5,2.59,51.24,51.24,0,0,0,5.37-1c8.86-2.15,17.14-5.91,25.55-9.3,5.14-2.07,10.14-4.53,15.09-7,4.6-2.33,9.07-4.91,13.56-7.45a7.79,7.79,0,0,0,2.28-2C395.39,595.72,395,594.63,393.53,593.93Zm-96.28-40.64A10.89,10.89,0,0,0,297,556c-2.74-2.64-3-14.51-.41-19.07a19.26,19.26,0,0,1,1,1.86c0.83,2,1.65,4,2.37,6.1a2.76,2.76,0,0,1-.11,1.73C299.06,548.85,298.06,551,297.25,553.29Zm7.46,16.12c0,0.71-.11,1.42-0.17,2.14l-0.58.09c-0.79-1.37-1.62-2.72-2.37-4.11a29,29,0,0,1-1.64-3.48,3.37,3.37,0,0,1,.2-1.46,4.45,4.45,0,0,1,1.19.78c1.3,1.67,2.7,1.56,3.49-.41a7,7,0,0,0,.57-2.58c0-2-1.18-2.79-3.12-2.28l-1.29.35a13.51,13.51,0,0,1,2.09-7c0.54,0.88,1,1.48,1.31,2.13,0.93,1.77,1.89,3.52,2.68,5.35a2.43,2.43,0,0,1-.06,2A16.22,16.22,0,0,0,304.72,569.41ZM327,605.77a8.6,8.6,0,0,0-.93,2.85,14.08,14.08,0,0,0-.25,1.46h-0.3c-0.7-1.31-1.37-2.64-2.11-3.93-2.64-4.53-5.39-9-8-13.57-2.78-5-5.36-10-8.08-15-1-1.77-.41-3.59-0.28-5.37a43,43,0,0,1,.84-5.54,12.1,12.1,0,0,1,1-2.36,8.89,8.89,0,0,1,1.58,1.78c2.73,5.54,5.48,11.08,8.06,16.69,2.7,5.85,5.22,11.79,7.82,17.68,0.32,0.73.68,1.45,0.94,2.21A3.07,3.07,0,0,1,327,605.77Zm60.18-8.44a120.3,120.3,0,0,1-17.28,9.23c-5.08,2.35-10.15,4.74-15.27,7-3.29,1.45-6.67,2.69-10,4-2.12.81-4.27,1.53-6.41,2.3a5.09,5.09,0,0,1-.63.21c-4.25.9-5.41,0.61-5.48-3.74a48.45,48.45,0,0,0-.46-5.2c-0.53-4.24.5-6.41,4.43-8,7.19-3,14.42-5.85,21.71-8.57,6.92-2.57,13.94-4.88,20.9-7.32,1.55-.54,3.08-1.17,4.63-1.73a11.31,11.31,0,0,1,1.56-.29,4.25,4.25,0,0,1-2.93,2.85c-7,2.9-14.09,5.73-21.14,8.6q-3.4,1.38-6.78,2.79a2.69,2.69,0,0,0-.95.68c10.5-3.49,20.77-7.61,31.22-11.22l0.27,0.63c-2.66,1.69-5.7,2.68-8.49,4.15s-5.66,3-8.51,4.46-5.73,2.89-8.46,4.62c2.44-1,4.9-2,7.32-3.05,5-2.17,9.92-4.42,14.91-6.54a12.44,12.44,0,0,1,3.51-.77,3.67,3.67,0,0,1,1.49.61,3.88,3.88,0,0,1-1,1.43c-3.9,1.95-7.79,3.92-11.79,5.67-4.6,2-9.31,3.78-14,5.67-0.56.23-1.1,0.52-1.65,0.79l0.13,0.33c1.53-.52,3.1-1,4.59-1.59,5.91-2.45,11.78-5,17.72-7.42a55,55,0,0,1,6.27-1.89,3.66,3.66,0,0,1,1.35.18A4.22,4.22,0,0,1,387.14,597.33ZM387,580.23c-6.08,2.14-12.19,4.21-18.26,6.39-5.27,1.9-10.49,3.9-15.73,5.88-5,1.89-10,3.77-15,5.73-1.48.58-2.85,1.46-4.31,2.12-2.42,1.09-4.11.43-5.15-2-1.82-4.3-3.66-8.6-5.35-13a157.26,157.26,0,0,0-8.69-18.3c-2.8-5.15-5.39-10.42-7.88-15.72-2.29-4.9-4.32-9.93-6.46-14.91a9.35,9.35,0,0,1-.47-1.25c-0.47-1.76-.35-2.3,1.25-3.16,4.93-2.67,9.82-5.41,14.88-7.81,5.42-2.57,11-4.89,16.54-7.09,4-1.58,8.14-2.9,12.28-4.1,3.57-1,7.25-1.73,10.88-2.58l0,0.43c2.78-.59,4.21,1.07,5.23,3.19,1.57,3.25,3,6.55,4.51,9.83q3.44,7.52,6.87,15c2.21,4.86,4.45,9.71,6.58,14.61q3.94,9.05,7.71,18.18a59.21,59.21,0,0,1,2,5.81C389,579.1,388.62,579.66,387,580.23Z" transform="translate(-290.57 -507.14)"/><path class="cls-1" d="M372.24,545.11q-3.44-8.54-6.95-17.06c-1.16-2.79-2.26-5.63-4.42-7.86-1.39-1.43-2.9-2.73-5.11-2.29a28.6,28.6,0,0,0-3.59,1.06c-5.93,2-11.88,4-17.77,6.15q-11.2,4.12-22.3,8.54c-3.89,1.55-4.7,4.05-2.87,7.79,0.66,1.36,1.28,2.74,1.91,4.12l10,21.83c0.59,1.28,1.62,1.83,3.51,1.82a15,15,0,0,0,2.61-.61c6.16-2.43,12.27-5,18.44-7.4s12.15-4.61,18.2-7c2.65-1,5.26-2.17,7.86-3.32a2.38,2.38,0,0,0,1.33-3A19,19,0,0,0,372.24,545.11Zm-5.39,4.57c-4.15,1.6-8.33,3.1-12.49,4.64l-14.15,5.22c-4.55,1.67-9.1,3.38-13.68,5-2.32.8-3.08,0.43-4.13-1.79q-4.49-9.45-8.89-18.94a24.3,24.3,0,0,1-1.14-3.56,1.69,1.69,0,0,1,1-2.18,153.68,153.68,0,0,1,23.28-9.58c4.42-1.36,8.79-2.86,13.16-4.36,1.59-.54,3.11-1.29,4.68-1.89a9.7,9.7,0,0,1,1.7-.33c2.06-.09,2.94,1.37,3.66,2.87,1.22,2.52,2.28,5.12,3.44,7.67,1.73,3.8,3.5,7.58,5.22,11.39a11.76,11.76,0,0,1,.81,2.54C369.62,547.78,368.81,548.92,366.85,549.68Z" transform="translate(-290.57 -507.14)"/><path class="cls-1" d="M333.19,553.13c-1-.74-1.82-1.65-2.8-2.37a24.57,24.57,0,0,0-2.52-1.45,7.37,7.37,0,0,0-5,2.43,2,2,0,0,0-.22,1.76c1.06,2.4,2.24,4.74,3.4,7.08a2,2,0,0,0,2.71,1.21,9.89,9.89,0,0,0,4.68-3.18A3.82,3.82,0,0,0,333.19,553.13Zm-4.47.61a1.6,1.6,0,0,1-1.64,1.57c-0.84,0-1.54-1-1.49-2.45a3.45,3.45,0,0,1,1.27-.67A1.54,1.54,0,0,1,328.73,553.74Z" transform="translate(-290.57 -507.14)"/><path class="cls-1" d="M363.64,546.22c-0.75-.39-1.55-0.67-2.31-1-1.52-.74-1.64-1.51-0.52-2.78A5.35,5.35,0,0,0,362,540.8a1.5,1.5,0,0,0-.43-1.33,1.55,1.55,0,0,0-1.38-.11,3.29,3.29,0,0,0-1.19,1.2c-0.5.77-.88,1.61-1.46,2.69a10.09,10.09,0,0,0-1.12-2.1,1.81,1.81,0,0,0-1.45-.51,1.42,1.42,0,0,0-.75,1.17,14.75,14.75,0,0,0,3.24,8,1.32,1.32,0,0,0,1.08.45,2.65,2.65,0,0,0,.69-1.17,2.39,2.39,0,0,0,0-.52c0-.41.13-0.81,0.2-1.22a7.72,7.72,0,0,1,1.22.34c0.65,0.29,1.25.69,1.89,1,1.34,0.64,2.22.47,2.6-.55C365.54,546.89,364.43,546.62,363.64,546.22Z" transform="translate(-290.57 -507.14)"/><path class="cls-1" d="M331.09,542.62a2.74,2.74,0,0,0,1.56.52,5.83,5.83,0,0,0,5.63-5.82c0-2.15-1-3.5-3.25-4.34-1.68-.62-2.51-0.31-4.09,1.54-0.32.37-.58,0.79-0.91,1.15C327.92,538,329.35,541.36,331.09,542.62Zm2.6-6.65a3.18,3.18,0,0,1,2.12.67c0.73,0.64.31,1.57-.27,2.14a15.12,15.12,0,0,1-2,1.53c-1.47,0-1.92-.67-2-1.61A2.89,2.89,0,0,1,333.7,536Z" transform="translate(-290.57 -507.14)"/><path class="cls-1" d="M349,534.32a7.22,7.22,0,0,0-.05-0.82c-0.36-2.44-2.83-4.2-4.86-3.47-3.31,1.18-4.77,5.66-2.64,8.43a3.49,3.49,0,0,0,2.18,1.29C346.24,540,349,537.21,349,534.32ZM344.42,537a1.64,1.64,0,0,1-1.69-1.71,3,3,0,0,1,2.53-2.82,1.76,1.76,0,0,1,1.84,1.69A3.11,3.11,0,0,1,344.42,537Z" transform="translate(-290.57 -507.14)"/><path class="cls-1" d="M355.67,534.38a1.18,1.18,0,0,1,1.6-.91,8.34,8.34,0,0,0,2,.27c0.76,0,1.55-.21,1.48-1.3a1.55,1.55,0,0,0-1.43-1.75c-0.49,0-1,0-1.47-.08-0.94-.06-1.34-0.42-0.78-1.37,0.29-.49.48-1,0.77-1.66a2.76,2.76,0,0,0-.78-1.15,1.59,1.59,0,0,0-1.21.49c-0.45.41-.71,1-1.15,1.45-0.62.59-1.38,0.65-1.71-.26s-0.87-1.43-1.78-1-0.78,1.25-.44,2.05c0.74,1.76,1.42,3.54,2.22,5.27a7.61,7.61,0,0,0,1.24,1.51A5.25,5.25,0,0,0,355.67,534.38Z" transform="translate(-290.57 -507.14)"/><path class="cls-1" d="M340.18,547.4c-2,.26-4.1.83-5,3.2a4.55,4.55,0,0,0,.74,4.75,3,3,0,0,0,3.64.86,7.6,7.6,0,0,0,4.22-3.66C344.92,550.32,342.93,547.37,340.18,547.4ZM339,553.9c-0.9,0-1.49-.83-1.49-2.14a2.09,2.09,0,0,1,2.12-2.1,2,2,0,0,1,2.21,1.61C341.84,552.28,340.12,553.88,339,553.9Z" transform="translate(-290.57 -507.14)"/><path class="cls-1" d="M326.17,545.2a2,2,0,0,0,.3-1.56,1.8,1.8,0,0,0-1.35-.32,8.59,8.59,0,0,0-1.74.63,1.64,1.64,0,0,1-2.41-1.13c-0.48-1.41,0-2.07,1.75-3.05a6.32,6.32,0,0,0,1.33-1.39,6,6,0,0,0-1.9-.69c-2.29,0-4,2-4.12,4.56-0.13,2.77,1.56,4.68,4.71,4.69A4.9,4.9,0,0,0,326.17,545.2Z" transform="translate(-290.57 -507.14)"/><path class="cls-1" d="M348.93,543.88c-1.75-.07-3.72,2.28-3.69,4.4a4.1,4.1,0,0,0,3.69,3.61c1.95,0.07,3.42-1.83,3.44-4.44A3.6,3.6,0,0,0,348.93,543.88Zm0.09,5.61c-0.43-.49-1.18-1-1.19-1.49a1.9,1.9,0,0,1,1.28-1.28c0.4-.09,1,0.55,1.81,1.08Z" transform="translate(-290.57 -507.14)"/></svg>