<svg id="Calque_1" data-name="Calque 1" xmlns="http://www.w3.org/2000/svg" viewBox="0 0 115.89 94.73"><defs><style>.cls-1{fill:#404040;}</style></defs><title>burger</title><path class="cls-1" d="M527.53,563.82c2.25-1.66,2.71-4,2.66-6.61a7,7,0,0,0-2.3-5.41c-0.7-.6-1.55-1-2.29-1.6a2.58,2.58,0,0,1-1-1.08c-0.59-2.05-1.06-4.14-1.59-6.21a25.68,25.68,0,0,0-1.05-3.77,24.25,24.25,0,0,0-2.1-3.66c-1.76-2.68-3.38-5.47-6-7.47-2.33-1.78-4.5-3.79-6.88-5.49a27.6,27.6,0,0,0-10.08-4.71c-1.35-.3-2.74-0.43-4.09-0.73-1.73-.39-3.42-1-5.15-1.28a43,43,0,0,0-5.69-.65c-3.84-.17-7.69-0.29-11.53-0.27a80.38,80.38,0,0,0-9.26.44,90.89,90.89,0,0,0-9.06,1.76,49.09,49.09,0,0,0-5.4,1.58A60.52,60.52,0,0,0,441,521a47.87,47.87,0,0,0-5.44,3,51.25,51.25,0,0,0-4.11,3.19,11.84,11.84,0,0,0-1.75,1.49,43.93,43.93,0,0,0-2.94,3.81c-2.48,3.69-4.63,7.52-5.05,12.08a23.4,23.4,0,0,0,0,7.52,1.54,1.54,0,0,1-.53,1.6,7.77,7.77,0,0,0-1.61,2.07,17.58,17.58,0,0,0-1.94,9.69,9.78,9.78,0,0,0,.54,2.57,2.37,2.37,0,0,0,2.13,1.72,41.3,41.3,0,0,0,4.67-.39,2.82,2.82,0,0,1,2.07.38c-0.2.1-.3,0.15-0.4,0.19-1.82.62-2.54,1.08-2.32,2.92,0.09,0.72-.42.64-0.9,0.68a9.56,9.56,0,0,0-7.55,4.08,8.88,8.88,0,0,0-1.56,5,12.12,12.12,0,0,0,.35,2.95,10.88,10.88,0,0,0,1.13,3.27c1.18,1.86,2.76,3.38,5.23,3.06a28.49,28.49,0,0,0,3.59-.93c0.15,0.67.34,1.53,0.54,2.38a15.42,15.42,0,0,0,2.23,5.13,16.76,16.76,0,0,0,7.09,6,62.66,62.66,0,0,0,6.23,2.34,26.83,26.83,0,0,0,3.21.59,50.42,50.42,0,0,0,6,1.17c5,0.36,10,.51,15,0.74a4.52,4.52,0,0,1,.59.08,6.71,6.71,0,0,0,1.49.26c1.07-.06,2.14-0.32,3.21-0.34,2.81,0,5.63,0,8.44,0a106.94,106.94,0,0,0,21.23-1.45,34.62,34.62,0,0,0,12.83-4.95,18.66,18.66,0,0,0,6.66-7.52,20.87,20.87,0,0,0,2-8.5,0.84,0.84,0,0,1,.63-0.85c3-1.45,5.55-3.28,6-7a6.58,6.58,0,0,0-1.62-5.53,2.68,2.68,0,0,0-4.36.2,6.91,6.91,0,0,1-.91.85c-1.27-3-.12-5.84-0.62-8.71l1.21-.06A10.58,10.58,0,0,0,527.53,563.82Zm-100-25.14a24.35,24.35,0,0,1,4-6.41,37.45,37.45,0,0,1,3.65-3.29,56.93,56.93,0,0,1,5-3.27c2.4-1.67,5.08-2.36,7.72-3.23a97.56,97.56,0,0,1,9.59-2.79,66.69,66.69,0,0,1,10-1.5c3.44-.22,6.91,0,10.37.12a40.24,40.24,0,0,1,4.29.25c3.62,0.48,7.24,1,10.84,1.59,1.85,0.31,3.64.89,5.48,1.24a17.49,17.49,0,0,1,6.77,3.11,27.54,27.54,0,0,1,3.15,2.36,75.73,75.73,0,0,1,6.6,6.58,23.52,23.52,0,0,1,3,5.47,21,21,0,0,1,1.77,9A1,1,0,0,1,519,549a29.53,29.53,0,0,1-3,.59,26.8,26.8,0,0,1-2.84,0v0.12c-5.19,0-10.4-.2-15.58,0-18,.82-36,0.34-54,0.49-2.09,0-4.19.16-6.28,0.12q-3.91-.08-7.8-0.41a28.69,28.69,0,0,1-3.5-.73,0.83,0.83,0,0,1-.68-1A24.41,24.41,0,0,1,427.51,538.68Zm-1,44.85a19.25,19.25,0,0,1-4.21,4.72,9.48,9.48,0,0,1-1.51.8c-1.07.49-1.25,0.34-2.08-.53-2.52-2.67-2.16-5.78-1.15-8.78,0.8-2.38,2.89-3.58,5.36-4a5.31,5.31,0,0,1,3.52.29,3.55,3.55,0,0,1,.66.58,4.54,4.54,0,0,1-.57.57,19.25,19.25,0,0,0-5,4.44,8,8,0,0,0-.66,1.57l0.36,0.24c0.59-.51,1.19-1,1.77-1.53a14.05,14.05,0,0,1,4.89-3.38,29.52,29.52,0,0,1,3.37-.69l0.14,0.31a3.1,3.1,0,0,1-.5.56A19.42,19.42,0,0,0,426.52,583.53Zm1.21-10.89c0.77,0,1.44.12,2.11,0.11a4.31,4.31,0,0,0,1-.25,11,11,0,0,0-.59-1,3.67,3.67,0,0,0-.63-0.5c0.41-.45.78-0.91,1.2-1.31a0.86,0.86,0,0,0-.08-1.42,4.47,4.47,0,0,0-1.39-.33c-0.92-.1-1.13-0.37-0.87-1.22s0.48-1.46.64-2.2a4.66,4.66,0,0,1,1.64-2.23,21,21,0,0,1,4.58-3.75,7,7,0,0,1,7.38.38,9.44,9.44,0,0,1,3.28,3.51,29.12,29.12,0,0,0,2.56,3.29c0.22,0.27.42,0.55,0.71,0.95-5.64,1.87-11,4.35-17.06,3.52a1.16,1.16,0,0,0,.91,1.29,8.77,8.77,0,0,0,2,.22,1.07,1.07,0,0,1,1.07.66c1.27,2.45,2.54,2.62,5,2.34A34.69,34.69,0,0,0,447,573.6a22.58,22.58,0,0,0,9-4.42,50.05,50.05,0,0,1,6.58-5,6,6,0,0,1,6.73.24,18.4,18.4,0,0,0,6.71,3.22,9.8,9.8,0,0,0,5.17-.27,0.69,0.69,0,0,1,1.09.62,8.09,8.09,0,0,1-.47,3.77c-1.51-.9-2.95-1.76-4.4-2.6a2.12,2.12,0,0,0-.61-0.14,1.15,1.15,0,0,0,0,.6,10,10,0,0,0,2.13,2.48,14.37,14.37,0,0,0,8.26,2.4,27.64,27.64,0,0,0,6.24-1,13.55,13.55,0,0,0,3.45-2.13,18.49,18.49,0,0,0,1.9-1.46,5.16,5.16,0,0,0,.7-1l-0.2-.28-2.5.54c-0.25-1.24-.1-1.68,1-2.26a1.37,1.37,0,0,0,.75-1.79,6.92,6.92,0,0,0-1.51.51,18.16,18.16,0,0,1-10.36,2.63,11.41,11.41,0,0,1-3.16-.69c-0.82-.27-0.84-0.75-0.13-1.25a34.35,34.35,0,0,0,5.35-4.82,5.91,5.91,0,0,1,5.2-1.69,1,1,0,0,1,.6.28,10.09,10.09,0,0,0,3.84,2.78,17.19,17.19,0,0,0,3.79.9,0.88,0.88,0,0,0,.7-0.34A6.25,6.25,0,0,1,504.3,562a6,6,0,0,1,1.85-1.11c1.28-.37,2.54-0.66,3.8.35a23.42,23.42,0,0,0,6.89,3.74c1.09,0.39.59,1.29,0.73,2s-0.44.62-.86,0.72-0.82.22-1.37,0.38a21,21,0,0,0-.32-2.12,2.64,2.64,0,0,0-.59-0.8,2.29,2.29,0,0,0-.36.84c0,1.19-1,1.33-1.7,1.82a9.29,9.29,0,0,1-1.78.82,0.82,0.82,0,0,0,.88.86c0.91,0.06,1.82.1,2.73,0.19a1.93,1.93,0,0,1,1,.26,1.74,1.74,0,0,1,.51,1.08,1.2,1.2,0,0,1-.7.58c-1,.43-2.07.81-3.1,1.2-0.1.93,0.38,1.06,1.17,1.1a32.2,32.2,0,0,1,3.89.53,2.77,2.77,0,0,1,.82.8,10.26,10.26,0,0,1-1.2.19c-3.9.06-7.8,0.12-11.7,0.15a3.82,3.82,0,0,1-1.23-.28,7.75,7.75,0,0,0-5.21.08,8,8,0,0,1-2.16.44c-2.4.12-4.81,0.16-7.22,0.23-2.72.08-5.44,0.25-8.16,0.21-1.79,0-3.57-.46-5.36-0.56-2.37-.13-4.74-0.1-7.11-0.13l-0.26,0c-3.58.05-7.17,0.14-10.75,0.14-1.28,0-2.56-.3-3.84-0.28a36.46,36.46,0,0,0-3.83.42l-5,.64c-0.47.06-.94,0.15-1.42,0.22a10.67,10.67,0,0,1-4.7-.54,37.43,37.43,0,0,0-5.3-1c-0.57-.08-1.19.28-1.77,0.23a27,27,0,0,1-3.19-.54,0.78,0.78,0,0,1-.67-0.94A12.29,12.29,0,0,0,427.73,572.64Zm19.56-3.72c0.82-.39,1.66-0.74,2.51-1.05a0.6,0.6,0,0,1,.5.27c0.28,0.59.5,1.2,0.77,1.85a3.3,3.3,0,0,1-3.78-.09C446.87,569.57,446.69,569.2,447.28,568.92Zm-0.21,2.84c-1.34.29-2.54,0.62-3.76,0.81a1.78,1.78,0,0,1-1.69-1.68c0.88-.31,1.77-0.69,2.7-0.94C445.48,569.63,446,570,447.08,571.75Zm-6,1.41a20.89,20.89,0,0,1-2.57,0,1.94,1.94,0,0,1-1-.73,0.82,0.82,0,0,1,.33-0.62,4.79,4.79,0,0,1,1.18-.18C440.31,571.46,440.8,571.83,441.11,573.16Zm10.49-5.21,2.76,0.43,0.1,0.34a15.7,15.7,0,0,1-2.28.57A5.25,5.25,0,0,1,451.6,567.95Zm32,4.19a8.57,8.57,0,0,1,.32-1.79,1,1,0,0,1,.85-0.42c1.42,0.13,1.42.16,1.43,2.5l-2.31-.17A0.52,0.52,0,0,1,483.64,572.14Zm5.61-1.85h0.69c1.32,0,1.32,0,1.55,1.57l-3.74.58a2.27,2.27,0,0,1-.11-0.34C487.56,570.37,487.57,570.37,489.26,570.29Zm4.19-.71a9.63,9.63,0,0,1,1.2-.47,1.11,1.11,0,0,1,.69.13,1.41,1.41,0,0,1-.16,1,24.33,24.33,0,0,1-2.35,1.18C492.32,570.13,492.37,570,493.44,569.58Zm24.61,7.76a6.39,6.39,0,0,1-5.13,5.91,1.11,1.11,0,0,1-.83,0q-2.58-2-5.09-4.11a8.25,8.25,0,0,1-1-1.21h1.77c2.32,0,4.64.14,7,.12a12.16,12.16,0,0,0,2.33-.47Zm-30,2.17c-0.21-.23-0.52-0.36-0.73-0.58s-0.29-.62.19-0.65c2.43-.14,4.86-0.25,7.29-0.37a1.57,1.57,0,0,1,.35.23c-0.76,1.27-1.53,2.55-2.3,3.82a4,4,0,0,1-.5.65c-0.42.45-.83,1.21-1.31,1.27a7.84,7.84,0,0,1-3.36-.21,20,20,0,0,1-4.25-2.15,15.69,15.69,0,0,1-2.25-2.19c-0.23-.23-0.5-0.43-0.84-0.73a13.05,13.05,0,0,1,7.87,1.79l0.2-.2A2.88,2.88,0,0,0,488.05,579.51Zm-35.53.18c0.57-.25,1.12-0.55,1.7-0.75,2.81-1,5.73-.94,8.64-0.91a1.91,1.91,0,0,1,.48.11c-1.76,1.32-3.59,2.58-5.28,4a17.89,17.89,0,0,0-2.87,3.12,4.73,4.73,0,0,1-4.71,2.15,2.82,2.82,0,0,1-1.48-.92c-1.28-1.37-2.47-2.83-3.74-4.23-0.86-1-1.79-1.85-2.68-2.78a3.41,3.41,0,0,1-.26-0.4c3.21-.91,6.31-0.51,9.45-0.3a1.56,1.56,0,0,0-.11.29c0,0.34-.08.69-0.12,1Zm66,10.95a16,16,0,0,1-6.52,9.29c-2.39,1.78-5.17,2.34-7.87,3.16-2.19.67-4.46,1.11-6.71,1.58a22.62,22.62,0,0,1-2.9.34c-3.71.29-7.41,0.63-11.12,0.83-4,.22-8,0.35-12,0.44-4.36.1-8.73,0.29-13.08,0.08-3.58-.17-7.14-0.82-10.7-1.32-1.52-.21-3-0.54-4.54-0.9a25.21,25.21,0,0,1-8.47-3.26,13.3,13.3,0,0,1-5.68-7.12,37.09,37.09,0,0,1-1.11-5.85,2.67,2.67,0,0,1,.67-1.65c0.81-1.08,1.84-2,2.57-3.13a9.33,9.33,0,0,1,2.43-2.54,5.14,5.14,0,0,1,5.91-.1c1.57,1,2.45,2.53,3.59,3.87a20.41,20.41,0,0,0,4.9,4.51,8.79,8.79,0,0,0,5.57,1.28,2.16,2.16,0,0,0,1.06-.6c1.56-1.39,3-2.86,4.64-4.2s3-2.35,4.52-3.43c1-.66,2.05-1.12,3.07-1.7,0.49-.28.89-0.71,1.4-0.93a18.89,18.89,0,0,1,3-1.14,7.2,7.2,0,0,1,6,.7,12,12,0,0,1,2.21,2.34c1.29,1.51,2.44,3.16,3.84,4.55,2,2,4.57,2,7.14,1.48a3.12,3.12,0,0,0,1.39-.8c1.3-1.2,2.55-2.46,3.81-3.71a1.61,1.61,0,0,0,.34-0.58,10.37,10.37,0,0,1,2.88-4.24,2.87,2.87,0,0,1,4.29.32c0.62,1,1.27,2,2,2.93a44,44,0,0,0,3.48,4.5c2,2.05,4.54,2.13,7.12,1.49a3.1,3.1,0,0,0,1.42-1.21c0.59-.77,1-1.64,1.65-2.63a4,4,0,0,1,.26,1A36.13,36.13,0,0,1,518.48,590.64Zm4.47-14.5a1.5,1.5,0,0,1,1.84-.56,1.56,1.56,0,0,1,.68,1.72,5.7,5.7,0,0,1-1.79,4.33c-0.64.57-1.17,1.25-1.82,1.8a2.88,2.88,0,0,1-1,.34c-0.32-.86-0.61-1.5-0.8-2.17a1.78,1.78,0,0,1,0-1.22C520.91,578.93,521.9,577.51,522.95,576.14Zm-7.25-14c-1.94-1.07-3.76-2.37-5.64-3.55-1.34-.84-2.77-1.49-4.37-0.83a13.51,13.51,0,0,0-2,1.26c-1.86,1.2-3.78,1.65-5.79.41a13.54,13.54,0,0,1-2.44-1.74,4,4,0,0,0-4.12-.86,11.86,11.86,0,0,0-5,3,26.12,26.12,0,0,1-5.76,4.11,5.56,5.56,0,0,1-4.1.62,21,21,0,0,1-6.72-2.62,5.77,5.77,0,0,1-1.2-1.09A4.42,4.42,0,0,0,463,559.7c-1.64.86-2.85,2.25-4.3,3.33-2.36,1.76-5,2.81-8,1.66a7.54,7.54,0,0,1-3.45-3.31c-1.07-1.64-2.29-3.18-3.47-4.74a4.76,4.76,0,0,0-4-1.93,7.61,7.61,0,0,0-4.48,1.15c-1.36.94-2.76,1.83-4.11,2.79a10,10,0,0,0-2.4,2.7c-1.81,2.67-3.95,5.06-7.36,5.75a1.42,1.42,0,0,1-1.65-.92,7.62,7.62,0,0,1-.42-4.72,13.44,13.44,0,0,1,2.39-5.73,4.52,4.52,0,0,1,4.11-2.12l12.14-.24c2.18,0,4.36-.1,6.54-0.14,5.67-.08,11.35-0.25,17-0.21,6,0,11.91.36,17.87,0.42,2.65,0,5.31-.27,8-0.43,0.89-.05,1.77-0.15,2.66-0.16q9.78,0,19.55,0c3.13,0,6.25.11,9.38,0.14a7.55,7.55,0,0,0,2.29-.26,3.45,3.45,0,0,1,3.78.81,6.36,6.36,0,0,1,2.3,4.15,5.3,5.3,0,0,1-3.35,4.92A9.06,9.06,0,0,1,515.7,562.12Z" transform="translate(-414.3 -514.89)"/><path class="cls-1" d="M438.71,542.92c1.72-.52,2.74-1.29,3-3.29a8.81,8.81,0,0,1,.66-2.82,9.15,9.15,0,0,0,.53-3.79,5.89,5.89,0,0,0-1.55.56c-1.43,1.12-2.84,2.28-4.2,3.48a3.66,3.66,0,0,0-.74,4.66A2.35,2.35,0,0,0,438.71,542.92Z" transform="translate(-414.3 -514.89)"/><path class="cls-1" d="M509.35,544.69c0.05,0,.1.07,0.15,0.08a1.45,1.45,0,0,0,1.69-.69,4.51,4.51,0,0,0-.11-4.2,8.68,8.68,0,0,0-4.17-3.5c-1.16-.54-1.27-0.48-1.31.76a29.15,29.15,0,0,1,.93,4.24C506.68,543.27,507.48,544.38,509.35,544.69Z" transform="translate(-414.3 -514.89)"/><path class="cls-1" d="M464.46,544.2c0.35,0.23,1.22-.32,1.84-0.54,0.26-.1.47-0.32,0.74-0.42a1,1,0,0,0,.54-1.45c-0.55-2-1.06-4-1.6-6a8.34,8.34,0,0,0-.31-0.82,4,4,0,0,0-.89.42c-1.59,1.31-2,3.16-2.32,5.18a5.3,5.3,0,0,0,.36,1.56A5.93,5.93,0,0,0,464.46,544.2Z" transform="translate(-414.3 -514.89)"/><path class="cls-1" d="M454.25,530.06a3.71,3.71,0,0,1,.6-0.07,1.13,1.13,0,0,0,1.08-1.17,18.8,18.8,0,0,1,1.78-6.25c-2.4.43-4.82,0.77-6.17,3.19a3.19,3.19,0,0,0,0,3.34A2,2,0,0,0,454.25,530.06Z" transform="translate(-414.3 -514.89)"/><path class="cls-1" d="M498.12,529.64c0.61,0.42,1.8,0,2.73,0a0.56,0.56,0,0,0,.24-0.33,3,3,0,0,0-.4-3.14c-1.62-2.17-4-2.74-6.5-3.16a2.36,2.36,0,0,0,0,.54A10.17,10.17,0,0,0,498.12,529.64Z" transform="translate(-414.3 -514.89)"/><path class="cls-1" d="M487.91,541.8c0.06,0.82.88,2,1.47,2,2,0.08,3.71-1.46,2.93-3.47a34.09,34.09,0,0,0-2.21-4.21,0.7,0.7,0,0,0-1.25.15c-0.4,1.47-.75,3-1.11,4.44l0.17,0C487.9,541.12,487.88,541.46,487.91,541.8Z" transform="translate(-414.3 -514.89)"/><path class="cls-1" d="M436.88,594.74c0-.77.09-1.54,0.12-2.31,0-1,.14-2,0.09-3a1.79,1.79,0,0,0-1.36-1.7,1.56,1.56,0,0,0-2,.7A8.92,8.92,0,0,0,432.2,592a4.77,4.77,0,0,0,1.63,4.68c1.16,0.95,2.55,1.86,4.52,1.12-0.37-.66-0.73-1.25-1-1.86A3.06,3.06,0,0,1,436.88,594.74Z" transform="translate(-414.3 -514.89)"/><path class="cls-1" d="M511.37,589.08a2.79,2.79,0,0,0-2.88,1.07,11.07,11.07,0,0,1-4.36,5.21,1.21,1.21,0,0,0-.75,1.4l1.63,1a1.26,1.26,0,0,0,.59.29,6.18,6.18,0,0,0,3.42-1.24c2.34-1.89,2.68-4.53,2.63-7.28A0.63,0.63,0,0,0,511.37,589.08Z" transform="translate(-414.3 -514.89)"/><path class="cls-1" d="M469.31,601.86c-0.52-1.56-1-3.12-1.6-4.67a1.68,1.68,0,0,0-.58-1,2.81,2.81,0,0,0-1.75.27,4.62,4.62,0,0,0-1.61,2.75c-0.36,1.25-.7,2.57.48,3.57s2.5,2,4.36,1.13a1.08,1.08,0,0,0,.81-1.23A4.46,4.46,0,0,0,469.31,601.86Z" transform="translate(-414.3 -514.89)"/></svg>