<svg id="Calque_1" data-name="Calque 1" xmlns="http://www.w3.org/2000/svg" viewBox="0 0 90.95 109.23"><defs><style>.cls-1{fill:#404040;}</style></defs><title>champi</title><path class="cls-1" d="M116.36,694.85c4.45-2.12,5.71-6.16,6.33-10.56,0.52-3.63,1-7.27,1.43-10.9v-3.45c-1.54-8.09-6.39-14.12-12.4-19.27a35.2,35.2,0,0,0-17.79-8.09,80.82,80.82,0,0,0-22-.55c-6.93.81-13.75,2.15-20.13,5.07a33.17,33.17,0,0,0-14,12.61c-3,4.66-5,9.67-4.58,15.38,0.33,4.23,2.55,7.56,5.33,10.53A41,41,0,0,0,50,694a1.32,1.32,0,0,1,.8,1.89c-1.61,5-3.58,9.84-4.64,14.92A76.74,76.74,0,0,0,45,724.56,28.54,28.54,0,0,0,48.29,739a16.23,16.23,0,0,0,6.93,6.48c5.6,3.07,11.75,4.15,18,4.78a100.65,100.65,0,0,0,29.19-1.44c4.17-.8,8.46-1.61,12-4.37a20.82,20.82,0,0,0,6.09-8.4,34.56,34.56,0,0,0,3-13.72,28.74,28.74,0,0,0-1.83-9c-1.81-5.44-3.95-10.77-6-16.12C115.3,696.15,115.29,695.36,116.36,694.85Zm-42-43.44c3.67-2.86,10.5-3.4,14.54-1.06a6.32,6.32,0,0,1,1.44,1.55,3.6,3.6,0,0,1-4.08,3.49,16,16,0,0,0-4.09-.12A14.87,14.87,0,0,1,74.59,654C73,653.21,72.92,652.5,74.33,651.4Zm40,39.24a1.43,1.43,0,0,1-1.18-.51,15.51,15.51,0,0,0-1.5-2.27,3.34,3.34,0,0,0-2.38-.88,2.33,2.33,0,0,0-1.41,1.81,28.15,28.15,0,0,0,1.26,6.67c2,5.6,4.35,11.09,6.42,16.67a77.38,77.38,0,0,1,2.41,8.07,17.25,17.25,0,0,1-1.29,11.3c-1.54,3.5-3.08,7.24-6.59,9.22a19.93,19.93,0,0,1-7.67,2.76c-8.92.81-17.88,1.33-26.84,1.63A39.29,39.29,0,0,1,61.54,743c-6.48-2.22-9.59-7-11-13.39s-0.65-12.8,1-19.1c1-3.77,1.74-7.61,2.86-11.34a99.3,99.3,0,0,1,3.45-9.35c1.38-3.34,4.34-4.79,7.59-5.63,2.66-.69,5.39-1.15,8.09-1.65,4.93-.9,9.56.49,14.2,1.9q5,1.52,10.08,2.92a2.52,2.52,0,0,0,1.82,0,3.42,3.42,0,0,0,1.47-2,2.32,2.32,0,0,0-1.46-1.56c-4.45-1.33-8.88-2.77-13.42-3.7-7.76-1.58-15.43-.59-23,1.59a16.21,16.21,0,0,0-9.48,6.71c-0.6.92-1.47,1.5-2.46,0.72a129.84,129.84,0,0,1-10.08-8.23c-2.3-2.22-1.51-4.37,1.54-5.69,5.13-2.22,10.59-3,16.08-3.59,3.77-.38,7.58-0.37,11.37-0.54a113.49,113.49,0,0,1,25.69,2.74,81.72,81.72,0,0,1,14.49,4.74c2.39,1,4.43,3.22,6.22,5.24S116.86,689.82,114.37,690.64Z" transform="translate(-33.17 -641.51)"/><path class="cls-1" d="M101.23,698.28h-0.54a4.26,4.26,0,0,0-.62,1.49,20,20,0,0,0,.32,5.46c1.58,5.31,3.47,10.54,5.21,15.81,1.34,4.05,1.79,7.92-2.56,10.62a1.38,1.38,0,0,0-.49.48c-0.25.47-.45,1-0.66,1.45a4.27,4.27,0,0,0,1.84.44,7.69,7.69,0,0,0,5.43-4.81c0.89-2.3.19-4.45-.39-6.57-2-7.18-4.06-14.33-6.16-21.47A19.47,19.47,0,0,0,101.23,698.28Z" transform="translate(-33.17 -641.51)"/><path class="cls-1" d="M101.67,678.37l-2.19-1.88-1.43,1.6a5.94,5.94,0,0,0,1.94,1.57C100.42,679.77,101.11,678.83,101.67,678.37Z" transform="translate(-33.17 -641.51)"/><path class="cls-1" d="M106.39,684.19a5.14,5.14,0,0,0-1.71-1.24c-0.45-.09-1,0.56-1.57.88l2,1.75Z" transform="translate(-33.17 -641.51)"/><path class="cls-1" d="M60.75,678.43a1.36,1.36,0,0,0,.2,1.21c0.66,0.71,2.27.16,3.11-1C62.85,677.79,61.1,677.64,60.75,678.43Z" transform="translate(-33.17 -641.51)"/><path class="cls-1" d="M107.74,682.74a4.47,4.47,0,0,0,1.52,1.24c0.42,0.09,1-.55,1.94-1.16-1-.67-1.6-1.31-2.17-1.33C108.61,681.48,108.17,682.3,107.74,682.74Z" transform="translate(-33.17 -641.51)"/><path class="cls-1" d="M54,679.53a1.82,1.82,0,0,0,0,1.73c1.16,0.65,1.86-.18,2.56-1.21C55.67,679.24,54.85,678.54,54,679.53Z" transform="translate(-33.17 -641.51)"/><path class="cls-1" d="M77.24,675.07a2.11,2.11,0,0,0,2.92,1.19,1.29,1.29,0,0,0,.3-1.14C79.52,674.12,78.46,674.37,77.24,675.07Z" transform="translate(-33.17 -641.51)"/><path class="cls-1" d="M47.72,677.92a9.08,9.08,0,0,0-2.23.13l-0.17.62a8.87,8.87,0,0,0,2.09,1.07A1,1,0,1,0,47.72,677.92Z" transform="translate(-33.17 -641.51)"/><path class="cls-1" d="M55.7,675.76c-0.94.09-1.88,0.26-2.81,0.42l0.21,1.17,2.84-.43A9.32,9.32,0,0,0,55.7,675.76Z" transform="translate(-33.17 -641.51)"/><path class="cls-1" d="M64,675.52c-1.31-1.57-1.92-1.61-3.26-.26A2.3,2.3,0,0,0,64,675.52Z" transform="translate(-33.17 -641.51)"/><path class="cls-1" d="M88.83,677.94a2.51,2.51,0,0,0,.71-1.12l-2.78-1C87,677.74,87.75,678.17,88.83,677.94Z" transform="translate(-33.17 -641.51)"/><path class="cls-1" d="M70.3,675.57c0.87,0.73,1.74.66,2.44-1.07l-2.46-.16A2.36,2.36,0,0,0,70.3,675.57Z" transform="translate(-33.17 -641.51)"/><path class="cls-1" d="M49.28,683c0.95,0.64,1.57.17,2.07-1.31H49A2.59,2.59,0,0,0,49.28,683Z" transform="translate(-33.17 -641.51)"/><path class="cls-1" d="M69.51,678.23h2.86C71.52,677.4,70.67,676.76,69.51,678.23Z" transform="translate(-33.17 -641.51)"/></svg>