<svg id="Calque_1" data-name="Calque 1" xmlns="http://www.w3.org/2000/svg" viewBox="0 0 92.52 97.77"><defs><style>.cls-1{fill:#404040;}</style></defs><title>confiture</title><path class="cls-1" d="M403.29,411.81c-0.38-.07-0.76-0.15-1.14-0.21-3.74-.55-5.46-3-4.85-6.83a60.58,60.58,0,0,1,2.62-8.87c1.2-3.72.25-6.7-2.87-9-3.91-2.89-8.58-3.25-13.15-4-2.43-.39-4.94,0-7.31-0.82H344.84c-1.82.44-3.69,0.19-5.53,0.36a49.07,49.07,0,0,0-17.37,4.85c-2,1-2.61,2.69-2,4.86a25.32,25.32,0,0,0,2.42,4.82,23.51,23.51,0,0,1,2.82,6.95c0.41,2.16-.23,3.27-2.23,4.14-1.12.49-2.31,0.81-3.46,1.22-2.2.77-3.84,2-4.11,4.55v4.26c1.59,2.54,4.1,3.2,6.91,1.61a34.94,34.94,0,0,0,4.76-3.3,6.6,6.6,0,0,1,6.35-1.13,54.18,54.18,0,0,1,8,2.91,11.44,11.44,0,0,0,10.91-.36,29.26,29.26,0,0,0,5.06-3.17c2.52-2.19,4.89-1.74,7.4-.15,2,1.24,3.94,2.43,5.89,3.68a8.77,8.77,0,0,0,8.09,1.09,25,25,0,0,0,6.33-3.24,4.74,4.74,0,0,1,5.57-.42c1.85,1.07,1.54,2.78,1.38,4.45-0.52,5.52-1,11-1.17,16.59q-0.56,14.5-1.24,29c-0.16,3.45-1.77,6.07-5.09,7.3a20.1,20.1,0,0,1-5.06,1.19,247.27,247.27,0,0,1-30.92.85,36.68,36.68,0,0,1-11.74-2.09c-4.31-1.62-7.34-4.12-7.61-9.31-0.32-6-.22-12-0.32-18-0.12-7.36,1-14.67.88-22a6.84,6.84,0,0,0-1-3.86,2.32,2.32,0,0,0-2.49-1.14c-1.11.28-.83,1.35-0.77,2.13,0.43,5.42-.12,10.82-0.24,16.23-0.23,10.38-.53,20.76.19,31.13a8.81,8.81,0,0,0,4.44,7.44,23.23,23.23,0,0,0,7.23,2.58c9,2,18.08,1.76,27.16,1.73,7.28,0,14.56-.35,21.69-2.15a9.79,9.79,0,0,0,7.67-7.76,36.16,36.16,0,0,0,.87-9c-0.1-12,.56-24,1.39-35.95,0.28-4,.29-4,4.27-3.58,0.58,0.06,1.16.13,1.73,0.14,2.84,0,5.64-2.79,6-6.06C408.13,413.62,406.65,412.44,403.29,411.81Zm-75.5-19.89a48.14,48.14,0,0,1,10.49-2.56,127.28,127.28,0,0,1,25.61-1.82c8,0.13,16-.11,23.84,1.81a42.27,42.27,0,0,1,5,1.44,4,4,0,0,1,2.84,4.71c-0.32,2.62-.87,5.2-1.27,7.81-0.18,1.16-.94,1-1.73.9-5.24-.7-10.45-1.62-15.71-2-6.06-.49-11.8-2.68-17.87-3.05-5.72-.35-11.27.9-16.89,1.61-3.9.49-7.82,0.77-11.73,1.16-1.41.14-2.08-.38-2.32-1.86a35.23,35.23,0,0,0-1.48-5.8C326.08,392.83,326.76,392.36,327.79,391.92Zm75.76,24.86c-2.86,2.38-5.11,2.29-7.8-.42-1.46-1.47-2.89-3-4.88-3.69-3.6-1.3-7-.94-9.91,1.66l-2.45,2.18a16,16,0,0,1-5.41.06,23.59,23.59,0,0,1-6.34-3.41c-4.48-3.33-6.55-3.46-11.16-.31-4.34,3-9.13,3.52-14.16,3a6.12,6.12,0,0,1-3-1.25c-3.51-2.68-7.19-2.18-11-.77-2.25.83-4.22,2.21-6.42,3.11-1.12.46-2.57,1.49-3.5,0.13s0.45-2.38,1.1-3.44a4.23,4.23,0,0,1,2.51-1.7,10.85,10.85,0,0,0,6.22-4.59,5.84,5.84,0,0,1,4.16-2.56,14.16,14.16,0,0,1,3.08-.2,22.71,22.71,0,0,0,10.77-1.71c3.75-1.64,7.72-1.5,11.6-.88,8,1.25,15.94,2.26,23.94,3.23,3.83,0.47,7.66,1,11.49,1.45a2.4,2.4,0,0,1,2.21,1.53c1.62,3.76,4.07,6.56,8.53,6.83a1.06,1.06,0,0,1,1.2.73A1.26,1.26,0,0,1,403.56,416.78Z" transform="translate(-315.42 -382.09)"/><path class="cls-1" d="M344.14,452.28c0.58,3.77,2.16,5.62,5.86,6.51a46.24,46.24,0,0,0,13.22,1.31c1.87,0,3.75.12,5.6,0a22.65,22.65,0,0,0,4.34-.91c4.52-1.31,6.55-4.06,6.56-8.74,0-1.93,0-3.87.08-5.8,0.19-4.5.46-9,.62-13.51A4,4,0,0,0,377.6,427a43.13,43.13,0,0,0-28.55-1.86c-4.27,1.12-5.63,2.55-5.18,6.93a77.79,77.79,0,0,1-.06,11A48.9,48.9,0,0,0,344.14,452.28ZM352.68,429c6.77-2.1,13.39-1.12,20,.76,3.41,1,3.9,1.86,3.86,6.39-0.47,4.43-1,9.81-1.63,15.18a4.25,4.25,0,0,1-3.53,3.89c-6.35,1.31-12.74,2-19.09-.08a4.55,4.55,0,0,1-3.45-4.59,85.77,85.77,0,0,0-1.3-13.45C346.61,431.9,347.75,430.5,352.68,429Z" transform="translate(-315.42 -382.09)"/></svg>