<svg id="Calque_1" data-name="Calque 1" xmlns="http://www.w3.org/2000/svg" viewBox="0 0 137.63 96.51"><defs><style>.cls-1{fill:#404040;}</style></defs><title>oeuf</title><path class="cls-1" d="M149.25,565.53c-5-3.26-6.42-7.92-5.86-13.5a22.43,22.43,0,0,0-.23-6.76c-0.8-3.94-3.18-5.94-7.23-6.14a41.39,41.39,0,0,0-8.12.52c-6.61,1-7.92,2.69-11.83-6.68-1.53-3.67-3.45-6.91-7.76-7.82a1.18,1.18,0,0,1-.33-0.51h-6.8v0.27a18,18,0,0,0-5.21,1.62c-3.8,1.66-6.84,4.4-10.08,6.85a7.6,7.6,0,0,1-6.83,1.2c-3-.72-5.07-2.76-7.17-4.87-5.54-5.58-13.91-5.05-18.88,1a58.8,58.8,0,0,0-6.64,10.23,17.61,17.61,0,0,1-4,5.14,3.09,3.09,0,0,1-4.13.39,11,11,0,0,0-8.85-1.57,8.47,8.47,0,0,0-6.94,10.37A31.19,31.19,0,0,0,25,562.71c1.92,3.8,1.1,7-1.62,9.94a33.28,33.28,0,0,0-5.28,7.29v3.63l0.2,0h0.2a3.81,3.81,0,0,0,.94,2.37,17.6,17.6,0,0,0,6.82,4.76c4.86,1.95,7.09,5.52,7.65,10.49a11.28,11.28,0,0,0,7,9.53c5.13,2.32,10.48,4.11,15.9,1.76,3-1.32,5.14-.72,7.45,1,0.91,0.67,1.88,1.26,2.82,1.89A15.78,15.78,0,0,0,83,616.8c4.69-2,8.8-4.93,13.14-7.52,3.8-2.27,4.56-2.22,8,.44,0.24,0.18.43,0.42,0.67,0.61,3.71,3,6.84,6.64,10.88,9.2a9.24,9.24,0,0,0,14.37-6.43,57.75,57.75,0,0,0,.27-6.78c0.16-3.14,1-4.31,4.11-5.11s6.43-.69,9.67-0.85c4.51-.23,6.31-1.62,7.75-5.92s2-8.51,3.15-12.73C156.86,575,155.2,569.42,149.25,565.53Zm1.44,14.26c-1,3.54-1.5,7.22-2.82,10.69s-3.12,5.95-7.28,5.95a51.53,51.53,0,0,0-6.52.74c-6.17.8-9,4.13-8.76,10.33a11.85,11.85,0,0,1-1.29,6.14c-1.47,2.71-3.44,3.2-6,1.47a49.38,49.38,0,0,1-3.9-3.08c-1.62-1.36-3.17-2.79-4.77-4.18-5.59-4.84-10.6-5.52-17.26-2.12-2.82,1.44-5.45,3.23-8.16,4.87a21.1,21.1,0,0,1-5.75,2.56c-3.52.88-6.77,0-8.78-3a8,8,0,0,0-8.94-3.75c-2.52.49-5.06,0.89-7.56,1.44-5.79,1.29-10.13-1.3-13.94-5.19-1.45-1.48-1.66-3.57-1.6-5.53,0.14-4.83-2.21-7.81-6.57-9.47-1.12-.43-2.25-0.86-3.33-1.39-3.3-1.63-4-3.93-2-7a74.13,74.13,0,0,1,5.07-6.37A8,8,0,0,0,31.88,564a45.32,45.32,0,0,1-3.2-9.87c-0.57-3.31.63-4.39,3.86-3.49s6.21,1.77,9.55,1.21a8.3,8.3,0,0,0,5.13-3,97.94,97.94,0,0,0,9.08-13c1.47-2.41,3.26-4.37,6.48-4.13a5,5,0,0,1,2.95,1c1.16,1,2.35,1.9,3.44,2.94,5,4.87,10,5.93,18,2,3.28-1.59,5.82-4.3,8.93-6.17,6.49-3.92,13.41-1.69,16.34,5.27,0.7,1.66,1.42,3.33,2.21,4.95a5.4,5.4,0,0,0,6.15,3.17c4-.6,7.9-1.28,11.85-1.92a17,17,0,0,1,2.47-.3c2,0,2.74.73,2.76,3.11-0.46,3-1.14,6.26-.56,9.71a17.48,17.48,0,0,0,5.49,10.62,46.38,46.38,0,0,1,6.38,6.41A7.61,7.61,0,0,1,150.69,579.8Z" transform="translate(-18.12 -524.63)"/><path class="cls-1" d="M95.08,554.67c-4.62-3.47-10.3-4.47-16.78-4.67-7.17.61-14.61,2.5-20.88,7.61-7.78,6.33-9.72,14.09-6.45,22.69,5.59,14.71,21.57,18.13,32.92,16.08,9-1.62,15.15-7.45,20.38-14.39a11.89,11.89,0,0,0,2.28-9C105.37,565.24,101.14,559.21,95.08,554.67Zm-0.26,29.91a34.25,34.25,0,0,1-20.51,6.73c-1.58-.11-3.17-0.11-4.74-0.34-8-1.19-13-6.15-14.14-13.69-1.2-8.29,2.36-14.79,9.75-18.32a35.17,35.17,0,0,1,18.75-3.19,19,19,0,0,1,15.57,10.41A14.59,14.59,0,0,1,94.82,584.58Z" transform="translate(-18.12 -524.63)"/><path class="cls-1" d="M75,561.86c-0.44-.07-0.9-0.07-1.15-0.09-6.68.07-11.67,4.62-11.94,10.71a5.57,5.57,0,0,0,3.76,5.8c1.12,0.42,2.21.57,3.14-.4s-0.05-1.79-.5-2.56c-2-3.43-1.33-5.7,2.22-7.53a30.23,30.23,0,0,1,4.87-1.7,2.24,2.24,0,0,0,1.81-2.49C77.07,562.1,76,562,75,561.86Z" transform="translate(-18.12 -524.63)"/></svg>