<svg id="Calque_1" data-name="Calque 1" xmlns="http://www.w3.org/2000/svg" viewBox="0 0 115.21 111.34"><defs><style>.cls-1{fill:#404040;}</style></defs><title>panier</title><path class="cls-1" d="M290.47,377v-1.16c-0.39-2.53-1.88-4.45-3.55-6.24-1.88-2-2.85-2-5.1-.32s-3.86,4.16-6.14,6.19c0.57-1.69,1.19-3.1,1.74-4.55,1.31-3.45.8-4.59-2.49-6.3-2.18-1.13-4.57-1.09-6.87-1.54h-0.77c-2.19.47-3,2.25-3.76,4-1.15,2.8-2.14,5.66-3.1,8.53a3.14,3.14,0,0,1-1.94,2.21,17.17,17.17,0,0,0-7,5.31,86.24,86.24,0,0,0-8,11.11c-0.86,1.41-1.8,2.76-2.91,4.55-0.64-4.93-.81-9.42-1.09-13.89-0.25-4.06-1.92-5.87-6-6-4.26-.12-8.47.54-12.7,0.88a3.71,3.71,0,0,0-3.17,1.93c-0.55,1-1.24,1.08-2.22.69a26.92,26.92,0,0,0-9-1.93,25.44,25.44,0,0,0-25.17,16.89,15.86,15.86,0,0,0-.85,9.29,16.73,16.73,0,0,0,2.65,6c0.88,1.26.58,1.76-.83,2a14.33,14.33,0,0,0-4.11,1.64,4.34,4.34,0,0,0-2.6,3.88l-0.2.07v3.48l0.2,0.05a9.35,9.35,0,0,0,.67,3.75c2.06,4.57,4.07,9.16,6.28,13.65a4.75,4.75,0,0,0,4.06,2.87c1.87,0.1,2.55,1.11,2.92,2.69,0.89,3.81,2.11,7.54,2.92,11.38a65.46,65.46,0,0,0,2.59,9.47c1.37,3.66,3.34,6.67,7.81,6.78h53a1.38,1.38,0,0,1,1.1-.19c4.1,0.21,6.77-1.75,8.53-5.36a40.28,40.28,0,0,0,3.1-10.51c0.91-4.93,2.08-9.81,3.18-14.7,0.27-1.19.76-1.91,2.18-1.91a5.94,5.94,0,0,0,5.27-3.36,10.74,10.74,0,0,0,1.37-5.55q0-7.33,0-14.67c0-3.79-1.54-6.59-5.16-8-1.08-.42-1-0.86-0.36-1.65,1.53-1.82,3.2-3.52,4.64-5.42,1.81-2.38,2.73-5,1.77-7.94a2.35,2.35,0,0,1,.88-2.85q2.88-2.41,5.67-4.95c1.7-1.54,1.88-2.61.7-4.57a1.76,1.76,0,0,1,.16-2.41A9,9,0,0,0,290.47,377Zm-66.59,8.2c3,0,6-.25,9-0.51,1.37-.12,1.74.34,1.78,1.67,0.17,5.65.46,11.31,0.7,17H236c0,5.53,0,11.05,0,16.58,0,1-.11,1.53-1.31,1.56-3,.06-5.91.24-8.86,0.42-1,.06-1.45-0.14-1.54-1.3q-1.25-16.44-2.66-32.86C221.52,385.91,222,385.26,223.88,385.24Zm-4.56,23c-0.21.78,0.49,2.07-.53,2.36-1.62.46-3.35,1-5.08,0.31-0.45-.17-0.48-0.46-0.28-0.9a5.54,5.54,0,0,0,.52-4.6,1,1,0,0,1,.5-1.15,11.38,11.38,0,0,1,1.36-1.06c0.88-.56,1.41-2.22,2.5-1.67,0.81,0.4.51,2,.67,3S219.22,407,219.32,408.22Zm-34-7.21c2.48-8.7,11.23-15.44,19.77-14.93a18.39,18.39,0,0,1,11.6,4.64c2.21,2,1.78,4.65,1.88,7.18a0.89,0.89,0,0,1-.4.56c-2-.75-2.33,1.33-3.45,2-0.92.58-1.68,1.41-2.58,2a2.06,2.06,0,0,1-2.52-.19c-0.79-.61-0.43-1.37-0.19-2.11,0.8-2.43,1.6-4.87,2.36-7.31,0.29-.94.55-1.93-0.79-2.35s-1.74.48-2,1.45c-0.93,3-1.8,6-2.75,9-0.24.76-.24,1.67-1.18,2.3-1.81-3.06-4-5.8-6.09-8.66a6.83,6.83,0,0,0-1-1.2,1.62,1.62,0,0,0-2.28,0c-0.75.61-.4,1.3,0,1.9,1.85,2.86,3.59,5.8,5.72,8.47,0.35,0.43,1,.91.66,1.44s-1.18.12-1.74-.13c-3.27-1.43-6.77-2-10.21-2.8-0.94-.22-2.07-0.64-2.47.93s0.71,2,1.87,2.27c2.44,0.55,4.94.87,7.33,1.65,0.49,0.16,1,.25,1.48.44,0.81,0.32,2.07.39,2.05,1.42s-1.29.88-2,1.09c-1.35.37-2.75,0.55-2.21,2.55,0.16,0.6-.29.74-0.8,0.79-0.9.09-1.79,0.21-2.68,0.33-1.77.23-3.6,0.69-3.59-2.17,0-.83-1-1.32-1.52-1.93A8.55,8.55,0,0,1,185.34,401Zm25.5,6.56c0,2.44-1.22,3.86-3,3.87a2.35,2.35,0,0,1-2.54-2.52c0-1.55,1.41-3.17,2.88-3C209.23,406,210.85,405.74,210.84,407.57Zm56,36.81c-1.42,7.13-3.17,14.18-5.08,21.19-0.63,2.31-2.34,3.41-4.61,3.84-4,.76-8.09.32-12.14,0.33-5.22,0-10.43,0-15.65,0a184.35,184.35,0,0,0-23.75.42,5.61,5.61,0,0,1-6.1-3.63c-1.81-4-2.35-8.41-3.88-12.5a62.33,62.33,0,0,0-3.3-8c-1.08-2-.78-2.53,1.42-2.87,4.26-.67,8.5-1.4,12.76-2.08,5.39-.86,10.78-1.76,16.19-2.53a76.78,76.78,0,0,1,18.31.07c6.62,0.64,13.27-.05,19.88.6,0.83,0.08,1.66.18,2.48,0.34C267.13,440.22,267.6,440.69,266.86,444.38Zm8.59-25c0.13,2.57.31,5.14,0.41,6.77a32.86,32.86,0,0,1-.39,6.9c-0.64,3.1-1.94,4-5.07,3.33-2.26-.5-4.5-1.09-6.75-1.65a32.11,32.11,0,0,0-10.52-.86c-8,.66-16,0.4-23.95.34-7-.05-13.8,1.42-20.66,2.54-6.28,1-12.58,2-18.88,2.85-2.54.36-3.31-.21-4.28-2.54-1.48-3.55-3-7.09-4.49-10.64a22.44,22.44,0,0,1-1-2.71c-0.56-2.07-.22-2.64,1.85-3.14a199.91,199.91,0,0,1,24-3.93c3.9-.45,7.8-0.89,11.69-1.41,1.6-.22,2.35.16,2.4,1.94a41.75,41.75,0,0,0,.66,5.55c0.37,2.3,1.48,3.46,3.75,3.7a83.26,83.26,0,0,0,12-.07,4.25,4.25,0,0,0,3.84-4.57c0-1.67-.21-3.34-0.32-5-0.17-2.6,0-2.76,2.61-2.47a145.79,145.79,0,0,0,16.38,1c3.35,0,6.7,0,10-.07a11.29,11.29,0,0,1,3.82.45A3.83,3.83,0,0,1,275.45,419.36Zm-1-18.33c-2.45,2.48-4.42,5.35-6.65,8a3.31,3.31,0,0,1-2.77,1.41c-2.25,0-4.5,0-6.75,0a113.16,113.16,0,0,1-15-1c-1.2-.16-2.82,0-3.35-1.4s0.27-2.65,1.27-3.8c4.78-5.47,9-11.43,13.89-16.8,1-1.13,2.27-2.08,3.37-3.17a1.58,1.58,0,0,1,2.36-.08c4.52,3.19,9,6.4,13.25,10C277,396.66,277.13,398.28,274.42,401Zm11.68-23.87c-1,1.4-2.23,2.66-3.35,4s-2,2.35-.14,3.7c0.71,0.52.38,1.15-.17,1.61a38.77,38.77,0,0,0-4,3.64,1.44,1.44,0,0,1-2.21,0,103.25,103.25,0,0,0-11.83-8.44,1.49,1.49,0,0,1-.69-2.09c1.28-3.63,2.48-7.28,3.78-10.9,0.73-2,1.21-2.21,3.14-1.19,1.14,0.6,2.57.94,3,2.48-0.19.45-.38,0.85-0.53,1.27-0.67,1.8-1.37,3.6-2,5.43a3,3,0,0,0,1,3.61c2.54,2,3.36,1.85,5.29-.69,1.44-1.89,3-3.71,4.47-5.55,0.65-.8,1.24-1.7,2.51-0.77C286.33,374.63,287,375.93,286.11,377.16Z" transform="translate(-175.26 -363.12)"/><path class="cls-1" d="M256.14,394.17a1.33,1.33,0,0,0-1.72.48,1.43,1.43,0,0,0,0,1.78A10,10,0,0,0,257,399c1.2,0.93,2.58,1.65,3.09,3.3a1.44,1.44,0,0,0,2,.7,1.92,1.92,0,0,0,1.33-1.85A4.16,4.16,0,0,0,263,400C261.18,397.5,258.52,396,256.14,394.17Z" transform="translate(-175.26 -363.12)"/><path class="cls-1" d="M249.35,401.71a1.33,1.33,0,0,0-1.26.74,1.31,1.31,0,0,0,.43,1.71q3.09,2.27,6.23,4.45a1.2,1.2,0,0,0,1.6,0,1.38,1.38,0,0,0,.25-1.6C256.17,405.64,250.81,401.71,249.35,401.71Z" transform="translate(-175.26 -363.12)"/><path class="cls-1" d="M244.58,452.78c-0.77,0-1.54,0-2.31,0-5.79-.25-6.65-0.33-6.65,6.6a3.14,3.14,0,0,0,3.4,3.35,22.82,22.82,0,0,1,3.27-.09c4.94,0.78,5.12-1.12,5.56-4.87a11.66,11.66,0,0,0,0-1.93C247.76,453.29,247.1,452.69,244.58,452.78ZM242.94,459a9.14,9.14,0,0,0-1.15,0v0c-0.58,0-1.16,0-1.73,0a1,1,0,0,1-1.24-1.25c0.13-.77.06-1.89,1.32-1.67a22.72,22.72,0,0,0,2.85,0c0.91,0,1.9.13,1.84,1.42A1.47,1.47,0,0,1,242.94,459Z" transform="translate(-175.26 -363.12)"/><path class="cls-1" d="M230.52,441.27c-2.18.17-4.38,0.13-6.53,0.46-1.55.24-3.33,0.72-3.4,2.77a21.91,21.91,0,0,0,.52,4.38,2.23,2.23,0,0,0,2,1.85,21.78,21.78,0,0,0,2.31.19c2-.13,3.57-0.27,5.18-0.34a2,2,0,0,0,2-1.71,13.47,13.47,0,0,0-.33-6.47A1.45,1.45,0,0,0,230.52,441.27Zm-1.78,6.24c-0.76.09-1.53,0.12-2.31,0.18-1.21-.2-3.1.75-2.88-1.78a1.05,1.05,0,0,1,.08-0.56c1.29-1.28,3-.41,4.52-0.92a1.31,1.31,0,0,1,1.73.83C230.26,446.36,230.22,447.33,228.73,447.51Z" transform="translate(-175.26 -363.12)"/><path class="cls-1" d="M205.65,443.75c-5.16.59-4.7,1.86-3.85,5.89,1,4.62.36,5.12,6.15,4.26,4.19-.63,4.21-0.54,4.06-4.67C211.81,443.49,211.16,443.12,205.65,443.75Zm0.85,7.35c-1.78.22-1.87-.88-2-2.24-0.19-2.12,1.16-1.88,2.58-1.84,1.67-.42,2.28.38,2.32,2.11C209.47,451.45,207.81,450.94,206.5,451.1Z" transform="translate(-175.26 -363.12)"/><path class="cls-1" d="M223.87,456.86c-0.61-1.52-1.64-2.39-3.45-2s-3.77.73-5.65,1.12c-1.54.32-2.4,1.16-2,2.86,0.27,1.25.44,2.53,0.79,3.75a2.38,2.38,0,0,0,2.91,1.88c2.2-.38,4.38-0.89,6.61-1.09,1.26-.11,2-0.86,1.8-1.74A18.36,18.36,0,0,0,223.87,456.86ZM220,460.74c-0.93.2-1.88,0.33-2.82,0.51a1.21,1.21,0,0,1-1.62-1.13,1.13,1.13,0,0,1,1.13-1.55,26.07,26.07,0,0,0,2.81-.65,1.64,1.64,0,0,1,2,1.52C221.66,460.54,220.74,460.59,220,460.74Z" transform="translate(-175.26 -363.12)"/><path class="cls-1" d="M244.58,442.37c-0.67,1.1-.49,2.37-0.48,3.58,0,2.92.48,3.37,3.3,3.39h4.24c1.48,0,3,.16,3.72-1.66,0.61-1.65,0-5.86-.92-6.66C253.09,439.91,245.47,440.91,244.58,442.37Zm6.78,3.67c-0.57,0-1.15,0-1.72,0v0.1c-0.57,0-1.15,0-1.72,0a0.85,0.85,0,0,1-.88-1c0-.49-0.06-1.09.65-1.2,1.19-.17,2.37-0.34,3.57-0.45a1.38,1.38,0,0,1,1.68,1.39C253,446,252.11,446,251.36,446Z" transform="translate(-175.26 -363.12)"/></svg>