<svg id="Calque_1" data-name="Calque 1" xmlns="http://www.w3.org/2000/svg" viewBox="0 0 113.08 110.36"><defs><style>.cls-1{fill:#404040;}</style></defs><title>pizza</title><path class="cls-1" d="M271.83,538.26c-0.79-7-4.15-12.21-10.77-15.11a62.28,62.28,0,0,0-8.62-2.8c-6.47-1.78-12.89-3.84-19.73-3.95-1.69,0-3.46.22-5.13-.36H189.42c-1.24.5-2.53,0.14-3.79,0.23-3.83.25-7.74,0-11.4,1.48-8,3.22-14.18,8-15,17.36H159v2.27h0.4c1.17,6,5.41,9.32,10.59,11.68a6.59,6.59,0,0,1,2.92,2.65c2.37,3.67,4,7.74,6,11.57a2.09,2.09,0,0,0,.9,1.86h0l3.63,8c5.78,12.74,11.52,25.5,17.35,38.21a119,119,0,0,0,7.78,14.5l-0.1.53h2.27l0-.49h0c1.55-.72,2.31-2.14,3-3.55q4.84-9.46,9.61-18.95c3-5.93,6.33-11.64,9.86-17.25q7-11.2,14-22.41c2.91-4.67,5.75-9.38,8.61-14.08,0.69-1.13,1.3-1.82,2.85-1a6.18,6.18,0,0,0,5.87-.29,13.9,13.9,0,0,0,7-7.35h0.47v-2.72A0.78,0.78,0,0,0,271.83,538.26Zm-19.23,8c-1.37,2.52-2.82,5-4.32,7.43C241.71,564.41,235.36,575.21,229,586c-3.24,5.53-6.85,10.84-10.23,16.3-0.76,1.23-1.24,1.06-1.85,0s-0.9-2.85-2.71-2.54A7.41,7.41,0,0,0,209,603a3.09,3.09,0,0,0,.75,3.94c1,1,1.95,2.51,3.8,1.4,1.2-.72,1.54-0.08,1.34,1a35.81,35.81,0,0,1-3.27,8.66c-0.64,1.34-1.36.46-1.81-.23a55.78,55.78,0,0,1-3.73-7.47c-2.48-5.25-5-10.48-7.48-15.73a2.24,2.24,0,0,0-1-1.82Q188,572,178.45,551.26c-1.79-3.88,0-7.07,4.29-7.6a9.72,9.72,0,0,1,3.39-.17c0.23,0.88-.58,1.14-1,1.62-2.54,3.17-2.51,7.86.07,9.85a7.69,7.69,0,0,0,11-1.36c3-4,3-4,8-4.86a14.92,14.92,0,0,0,7.68-4.08,12.4,12.4,0,0,1,6.47-3.06,9.07,9.07,0,0,1,9.05,3.42c3.63,4.36,4.47,4.46,9.56,1.83a41.26,41.26,0,0,0,3.93-2.25,12.28,12.28,0,0,1,10.2-1.47C253,543.6,253.45,544.72,252.59,546.31ZM189,551.6a5,5,0,0,1,4.31,0A5.47,5.47,0,0,1,189,551.6Zm77.31-10.24c-0.91,2.5-2.7,3.22-5,1.9a36.79,36.79,0,0,1-5.7-3.71c-4-3.43-8.31-3-12.79-1.44a41.36,41.36,0,0,0-6.91,3.36c-1.78,1-3.46,1.08-5.06-.71-6.72-7.51-15-7.68-22.05-.55-0.69.7-1.36,1.43-2.1,2.07-2.14,1.82-3.69,1.95-6.21.63a52.08,52.08,0,0,0-9.67-4.37c-4.69-1.35-9-.42-13.05,1.94-0.65.38-1.28,0.8-1.9,1.23-3.75,2.62-4.23,2.64-7.38.33s-4.38-5.25-3.28-8.6c2.13-6.47,7-9.49,13.39-10.64,4.58-.83,9.2-0.45,13.81-0.51s8.93,0,13.39,0v-0.6c5.9,0,11.8,0,17.7,0a80.5,80.5,0,0,1,34.38,7.81,25.43,25.43,0,0,1,6.64,4.68A6.28,6.28,0,0,1,266.33,541.36Z" transform="translate(-159 -516.04)"/><path class="cls-1" d="M224.31,567.75c-1.25-1-2.54-1.83-4.12-1a6,6,0,0,0-3.64,4.58,3.22,3.22,0,0,0,2.4,3.25c1.49,0.49,2.27-.57,2.84-1.66a6.25,6.25,0,0,1,2.5-3.09C225.37,569.24,225.32,568.52,224.31,567.75Z" transform="translate(-159 -516.04)"/><path class="cls-1" d="M201.6,575.31a5.08,5.08,0,0,0-3,2.23c-0.66,1-1.38,2-.48,3.29s1.86,2.31,3.43,2.16c1.37-.13,1.86-1.38,2.22-2.55,0.28-.92.51-1.87,0.62-2.3C204.47,575.74,203.43,574.85,201.6,575.31Z" transform="translate(-159 -516.04)"/><path class="cls-1" d="M219.84,549.61c2.24,0,4.14-1.66,4-3.33a2.43,2.43,0,0,0-2.51-2.41c-1.53,0-3.38,2-3.42,3.67A1.83,1.83,0,0,0,219.84,549.61Z" transform="translate(-159 -516.04)"/><path class="cls-1" d="M244.18,545.47c-1.38.09-1.75,1.22-1.77,2.24,0,1.35,1.14,1.6,2.32,1.73,1.27-.33,2.91-0.09,3.61-1.69C248.56,547.24,245.25,545.4,244.18,545.47Z" transform="translate(-159 -516.04)"/><path class="cls-1" d="M215.28,562.12c1-2,1.38-4,.23-6.06-1.85-3.28-8.15-5.53-11.59-4a17.3,17.3,0,0,0-8,7.07c-3.08,5.26,0,10.48,7,10.49C207.46,569,212.56,567.66,215.28,562.12Zm-15.62-1.76c2-2,3.81-4.38,7.14-4,0.75,0.06,1.51.06,2.25,0.18,2.89,0.46,3.82,2.42,2.39,5-1.74,3.17-7,5.22-10.41,4C198.4,564.67,197.72,562.33,199.66,560.37Z" transform="translate(-159 -516.04)"/><path class="cls-1" d="M239.66,553.48c-1.84-4.22-5.33-5.13-9-2.25a15.11,15.11,0,0,0-1.29,1.27,47.14,47.14,0,0,0-4.93,5.88,6.17,6.17,0,0,0,2.56,9c4.4,1.74,13.54-4.32,13.62-9.05,0-.08,0-0.15,0-0.84A12.9,12.9,0,0,0,239.66,553.48ZM237,557.93a11.28,11.28,0,0,1-6.29,5.9c-1.75.71-2-1-2.23-2.06-0.1-3.6,3.57-6.88,7-6.43C237.07,555.56,237.59,556.62,237,557.93Z" transform="translate(-159 -516.04)"/><path class="cls-1" d="M213.65,580.32c-1.93.12-4.35-.12-5.74,2a12.45,12.45,0,0,0-2.12,9.91c0.69,3.07,3.69,5.21,6.3,4.69,6.2-1.24,9-5.49,7.77-11.68C219,581.13,218.06,580.33,213.65,580.32Zm3.39,8.85a5.45,5.45,0,0,1-4.27,3.61,4.83,4.83,0,0,1-3.76-2.85,1.7,1.7,0,0,1,2.12-2.46,6.32,6.32,0,0,0,3.94-.38c0.65-.2,1.35-0.5,1.88.14A1.83,1.83,0,0,1,217,589.17Z" transform="translate(-159 -516.04)"/></svg>