<svg id="Calque_1" data-name="Calque 1" xmlns="http://www.w3.org/2000/svg" viewBox="0 0 148.06 99.79"><defs><style>.cls-1{fill:#404040;}</style></defs><title>poisson</title><path class="cls-1" d="M295.1,684.66c-4.34-7.25-5.3-15-4.12-23.22a28.85,28.85,0,0,0,0-9.44c-0.62-3.3-2.34-5.08-5.38-5.44h-0.08a1.07,1.07,0,0,0,0-.27h-4.34c-1.39,1.73-3.84,1.6-5.38,3.21a43.15,43.15,0,0,0-5.94,8.37,39.47,39.47,0,0,1-13.61,13.7,12.47,12.47,0,0,1-11.91,1.22c-5.49-2.26-10.8-5-16.62-6.4-1.22-.29-1.4-1-1-2a13.7,13.7,0,0,1,.73-2c1.59-2.83,2-5.66-.13-8.35-2.29-2.92-5.49-3.69-9-3.18a33.23,33.23,0,0,0-8.75,2.72,109.62,109.62,0,0,0-29.85,19.82c-3.6,3.32-6.9,6.53-8.41,11.26A3.71,3.71,0,0,1,170,686.3c-5.63,4.83-9.75,10.83-13.44,17.2-1.48,2.55-2,5.56-3.91,7.87v2.17c1,2.36,3,3.24,5.4,3.39a20.85,20.85,0,0,0,5.12-.23,19.07,19.07,0,0,1,5.66-.13c0.69,0.08,1.64,0,1.85.82S170,718.6,169.45,719a38.92,38.92,0,0,1-6.54,3.2,9.08,9.08,0,0,0-5.51,8.56c0.06,3.68,1.91,6.06,5.87,7.53a22.28,22.28,0,0,0,3.94.92c6.87,1.21,13.64.19,20.43-.72,3.85-.51,7.58-1.62,11.43-2.13a4.67,4.67,0,0,1,4,1.14,38.67,38.67,0,0,0,12.41,7c0.82,0.23,1.64.45,2.46,0.65a7.21,7.21,0,0,1,2.54.93h5.42q0-.26,0-0.53h0a21.36,21.36,0,0,0,5.09-1.78c3.6-2,4.24-3.69,2.84-7.56a59,59,0,0,0-4.78-10c-0.78-1.31-.75-2,0.72-2.93,8.23-5,16.54-10,24.48-15.41,7-4.83,14.1-4.86,21.53-1.64,2.55,1.11,5,2.56,7.42,3.87,6.76,3.61,12.51,2,16.33-4.58,0.31-.53.35-1.26,1.21-1.22v-6A41.42,41.42,0,0,0,295.1,684.66ZM188.92,670.42c7.7-6.58,16.55-11.22,25.93-14.89a10.75,10.75,0,0,1,6.89-.63c2.44,0.68,3.4,2.16,3,4.64A7.39,7.39,0,0,1,218,666c-9.1.95-17.5,4.14-25.78,7.76-3.51,1.54-7,3-10.55,4.57C183.5,675,186.23,672.72,188.92,670.42Zm15.2,42.47c-0.07,1.26,0,2.53,0,3.79-0.06,3.69.19,7.4-.45,11.08-0.24,1.38-.67,2.4-2.15,2.74-10.83,2.52-21.67,5-32.92,3.4a24,24,0,0,1-4.2-1c-1.17-.39-2.57-0.75-2.79-2.25s0.93-2.3,2-3c2.13-1.36,4.31-2.63,6.51-3.88a28.58,28.58,0,0,0,5.46-3.49,4.49,4.49,0,0,0,1.59-4.85,4.88,4.88,0,0,0-4-3.61,26.71,26.71,0,0,0-7.55-.26,47.9,47.9,0,0,1-4.86.22c-2.89-.06-3.56-1.08-2.4-3.78a46.4,46.4,0,0,1,15.34-19.91,14.78,14.78,0,0,0,1.69-1.34c5.57-5.46,11.12-4,16.21.13C199.75,693.53,204.72,701.91,204.12,712.89Zm24.94,23.22c1.61,2.74,1.14,3.68-1.94,4.11-1.07.15-2.15,0.22-3.22,0.32-5.82.11-10.51-2.83-15.22-5.66-1.14-.69-1.16-1.6.19-2.16,4.23-1.77,8.29-3.94,12.68-5.33a2,2,0,0,1,2.72.9C225.8,730.93,227.51,733.48,229.06,736.12Zm64.79-30.63c-2.4,2.29-4.93,1.85-7.53.76s-5.48-2.34-8.11-3.73c-8.34-4.4-16.48-4-24.4.93q-10.67,6.67-21.2,13.57a107.3,107.3,0,0,1-22,10.88c-1.92.7-2.47,0.45-2.16-1.75,1.44-10.5.43-20.66-4.1-30.41-2.74-5.9-6.45-10.82-12.1-14.16-0.91-.53-1.79-1.11-3.09-1.91,6.92-3.54,13.6-6.58,20.9-7.92,5.65-1,11.28-2.6,17.13-1.17a68.56,68.56,0,0,1,9.4,3.35c5.59,2.26,11.36,4,17.37,2.27,7-2,11.91-6.93,16-12.67,2.42-3.36,4.47-7,7.63-9.8a16.07,16.07,0,0,1,2.15-1.61,4.88,4.88,0,0,1,5.61.13c1.76,1.18,1.39,3,1.05,4.69A48.9,48.9,0,0,0,286,674.4c0.77,4.81,3,9,5.15,13.31a86.4,86.4,0,0,1,4.3,9.61C296.54,700.38,296.39,703.07,293.85,705.49Z" transform="translate(-152.64 -646.28)"/><path class="cls-1" d="M236.34,684.19c0-2.48-1.72-3.1-3.41-3.26-3.47-.07-7,2.25-7.09,4.34,0,1.89,2.8,4.23,5.19,4.29A5.46,5.46,0,0,0,236.34,684.19Z" transform="translate(-152.64 -646.28)"/><path class="cls-1" d="M215.32,681.49c0.51-1,.8-2.19-0.09-3a5.89,5.89,0,0,0-6.08-1.08,4.25,4.25,0,0,0-3,3.9c0,2.7,3.09,5.11,5.16,4.09A8.67,8.67,0,0,0,215.32,681.49Z" transform="translate(-152.64 -646.28)"/><path class="cls-1" d="M221.13,694.63c-0.07-1.95-2-4.22-3.54-4.18-2.09.06-4.8,2.88-4.69,4.88a4.29,4.29,0,0,0,4,3.68A4.52,4.52,0,0,0,221.13,694.63Z" transform="translate(-152.64 -646.28)"/><path class="cls-1" d="M226.63,703.41c-2.62.28-4.64,1.77-6.64,3.28-0.7.53-1.62,1.15-1,2.17a2.33,2.33,0,0,0,2.67,1.37,15.76,15.76,0,0,0,6.41-3.77,1.8,1.8,0,0,0,.46-2.2C228.12,703.52,227.3,703.59,226.63,703.41Z" transform="translate(-152.64 -646.28)"/><path class="cls-1" d="M251.57,686.61c-2.47,0-4.73,1.39-4.5,2.76a3.6,3.6,0,0,0,3.33,3.34c1.66,0.13,4.74-2.51,4.55-4C254.69,686.68,252.88,686.86,251.57,686.61Z" transform="translate(-152.64 -646.28)"/><path class="cls-1" d="M236.82,694.32a2.22,2.22,0,0,0-2.29,2.2c-0.13,1.22,2.22,3.62,3.5,3.66,1.62,0,2.08-1.11,2.35-2.22A4.16,4.16,0,0,0,236.82,694.32Z" transform="translate(-152.64 -646.28)"/><path class="cls-1" d="M282.25,683.42c-1.18,0-2.49.55-2.37,2s0.85,2.65,2.51,2.59c1.38-.05,1.89-1.12,2-2.24A2.07,2.07,0,0,0,282.25,683.42Z" transform="translate(-152.64 -646.28)"/><path class="cls-1" d="M271.71,686.18c-1.13,0-2.74.38-2.61,1.73s1.71,1.91,3,2.23a2.24,2.24,0,0,0,2.37-1.95C274.48,686.62,273,686.21,271.71,686.18Z" transform="translate(-152.64 -646.28)"/><path class="cls-1" d="M272.76,673.85a2.41,2.41,0,0,0-2.07,2.58c0,1.12.16,2.26,1.59,2.3,1.89,0.05,1.92-1.6,2.15-2.82A1.68,1.68,0,0,0,272.76,673.85Z" transform="translate(-152.64 -646.28)"/><path class="cls-1" d="M182.9,691.46a6.2,6.2,0,0,0-6.05,5.8A4.9,4.9,0,0,0,182,702c2.79,0,5.42-2.13,5.34-4.3S184.42,691.51,182.9,691.46Z" transform="translate(-152.64 -646.28)"/></svg>