<svg id="Calque_1" data-name="Calque 1" xmlns="http://www.w3.org/2000/svg" viewBox="0 0 113.95 106.12"><defs><style>.cls-1{fill:#404040;}</style></defs><title>poulet</title><path class="cls-1" d="M437.34,656.4A36.1,36.1,0,0,0,426,647.92c-2.65-1.3-5.34-2.73-8.41-2.94a2,2,0,0,1-1.85-.36h-1.1a2.08,2.08,0,0,1-1.87.35,13.54,13.54,0,0,0-1.79.33,58.55,58.55,0,0,0-14.53,7.61,99.24,99.24,0,0,0-19.6,17.55A137.31,137.31,0,0,0,364,687.11a42.39,42.39,0,0,0-6.45,21.33,7.5,7.5,0,0,1-1.06,3.62c-1.63,2.82-4.06,5.09-5.44,8a4.1,4.1,0,0,1-4.08,2.71,28.27,28.27,0,0,0-8,1.29c-4.05,1.22-8.16,2.45-10,6.88a7.88,7.88,0,0,1-1.08,3l0,0,0,3.74c1.2,3.85,3.44,6.39,6.19,6,2.6-.37,3,0.93,3.45,2.77a4.81,4.81,0,0,0,3.06,3.85,8.4,8.4,0,0,0,7.39-.89,13.54,13.54,0,0,0,5.61-8,44.4,44.4,0,0,1,9-16.81,5.39,5.39,0,0,1,5.39-2c0.9,0.16,1.8.37,2.68,0.59a32.88,32.88,0,0,0,23.18-2.76,101.62,101.62,0,0,0,23.47-16.08c6.18-5.71,12.3-11.47,17.47-18.13,3.44-4.44,6.12-9.28,6.87-15A17.75,17.75,0,0,0,437.34,656.4Zm-76.24,63.38q-2.92,3.16-5.75,6.39a29.27,29.27,0,0,0-6.65,13.46,13.42,13.42,0,0,1-1.3,3.81,3.31,3.31,0,0,1-3.76,1.94c-2.22-.43-3.09-2.34-1.81-4.17a21.1,21.1,0,0,0,2-3.71,2,2,0,0,0-3-2.46,27.69,27.69,0,0,0-2.91,2.21,2.74,2.74,0,0,1-1.83.69c-1.86.13-2.08-1.56-2.46-2.62A3.24,3.24,0,0,1,335,731.4l2.5-1.52a1.43,1.43,0,0,1,1.55-.66,21.54,21.54,0,0,1,6.19-.49c3.15,0.3,5.38-1.27,7.32-3.42a60.35,60.35,0,0,0,5.85-7.74c0.6-.93,1.13-2.49,2.74-1.37C362.39,717.08,362.39,718.39,361.11,719.78Zm66.43-60.56a2.09,2.09,0,0,1,1.7,2.21c-0.07,2.27-1.9,5.86-4,6.37a5.28,5.28,0,0,1-3.37-.36,3.48,3.48,0,0,0-4.52,1.11,9.82,9.82,0,0,1-2.66,2.22,4.39,4.39,0,0,1-4.21.12,1.7,1.7,0,0,1-1-2.41,5.43,5.43,0,0,1,5.53-3.38c2.9,0.08,3.61-.42,4.45-3.18,1-3.15,2.76-4.15,5.94-3.32C426.15,658.8,426.83,659.08,427.54,659.22Zm-2.14,31.24A81.48,81.48,0,0,1,410,704.22c-5.8,3.84-11.5,7.83-17.74,10.93A33.44,33.44,0,0,1,372,718.44c-4.42-.68-6.67-3.91-8-7.91a16.15,16.15,0,0,1,.09-10.1,63.24,63.24,0,0,1,10.82-21l4.21-5.29a1.61,1.61,0,0,1,1-1.23q4.36-4.57,8.73-9.12c0.44-.46.78-1.32,1.56-1s0.71,1.11.81,1.74a24,24,0,0,0,2.61,8.53c4.8,8.25,11.17,14.23,21.2,15.25,3.22,0.33,6.44.71,9.68,0.79,0.44,0,1.05-.26,1.3.33A1.06,1.06,0,0,1,425.41,690.46ZM433,679.3c-2.49,3.77-6.07,4.61-10.37,4.3s-8.34-.2-12.26-1.84c-8.32-3.48-13-9.3-13.86-18.31-0.27-3,1.14-5.11,3.06-7.08a1.21,1.21,0,0,1,1.18-1.05,38.51,38.51,0,0,1,7.28-4.08c2.93-1.86,5.88-1.41,8.83-.06,3,0.85,6.09,1.23,8.89,3.07a2.89,2.89,0,0,1-2.05.57c-4.66.51-7,2.58-7.93,7.21-0.26,1.35-.6,1.64-1.69.73a2.88,2.88,0,0,0-2.45-.46c-3.84.65-6.54,6.45-4.57,9.81,1.6,2.72,6.19,3.27,9.07,1.08a2.51,2.51,0,0,0,.42-0.36c2.09-2.48,4.63-2.86,7.72-2.15,3.36,0.78,4.92-.27,5.95-3.55a18.52,18.52,0,0,0,1-8c-0.09-.68-0.29-1.65.61-1.9,0.75-.2,1.13.61,1.42,1.2,1.18,2.41,2.72,4.66,3.41,7.28C438,671,435.71,675.19,433,679.3Z" transform="translate(-327.87 -644.62)"/></svg>