<svg id="Calque_1" data-name="Calque 1" xmlns="http://www.w3.org/2000/svg" viewBox="0 0 134.16 100.76"><defs><style>.cls-1{fill:#404040;}</style></defs><title>tourte</title><path class="cls-1" d="M158.16,460.43c-0.79-1.83-2.7-2.31-4.64-2.31h-4c-0.07-1.2-.15-2.21-0.17-3.23a5.88,5.88,0,0,0-3.53-5.39,16.89,16.89,0,0,0-3.92-1c-0.7-.15-1.24-0.25-1.07-1.21a5.62,5.62,0,0,0-2.56-6.15c-1.88-1.23-3.85-2.32-5.79-3.46-0.93-.54-1.62-0.88-1.37-2.41a17.19,17.19,0,0,0-.25-6.4,6.64,6.64,0,0,0-2.42-3.41c-2-1.53-4.45-1.53-6.86-1.29-1.41.14-2.78,0.47-3.25-1.56a5.22,5.22,0,0,0-1.48-1.88c-4-4.34-12.83-4.14-17.58-.29-2.52,2-2.53,2.11-5.26.45-2.41-1.47-5.1-1.89-7.8-2.47a13.29,13.29,0,0,0-8.21,1,30,30,0,0,0-9.58,7,10.63,10.63,0,0,1-.93-1,7.74,7.74,0,0,0-4.76-3.11c-4.93-1.18-8.95.58-12.59,3.82-2.83,2.53-3.9,5.48-2.83,9.13,0.34,1.17.86,2.3,1.4,3.69-4.95,1-9.37,2.63-11.88,7.49s-2.22,9.42.27,14.19c-0.62.07-1,.13-1.35,0.16-3.08.24-6.17,0.41-9.25,0.72-2,.2-2.59,1-2,3a52.21,52.21,0,0,0,2.33,6.21A17.1,17.1,0,0,0,29.57,475c1.67,1.85,4.22,1.46,6.41,1.79a3.33,3.33,0,0,1,2.66,1.46c0.51,0.82,1,1.66,1.52,2.47,0.89,1.41,1.75,2.84,2.71,4.21,1.67,2.37,4.29,2.7,6.87,3,2.1,0.23,4.21.31,6.32,0.45H60a9.27,9.27,0,0,1,1.27-.21c8.52-.22,17-0.47,25.55-0.61,12.26-.2,24.53-0.25,36.79-0.49,3.84-.07,7.82-0.33,10.92-3,2.81-2.38,5.27-5.17,8-7.67a3.1,3.1,0,0,1,2.33-.87,4.35,4.35,0,0,0,4.55-1.39c2.6-2.79,5.2-5.58,7.69-8.48A5,5,0,0,0,158.16,460.43Zm-22.29-4.71a1.34,1.34,0,0,1,.83-0.74c1.56,0.7,2.67-.37,3.93-0.89a3.47,3.47,0,0,1,4,1.35,1.93,1.93,0,0,1-1.61,3.1c-0.43,0-.87,0-1.3,0v0.07c-1.45-.17-2.91-0.28-4.35-0.52A1.69,1.69,0,0,1,135.86,455.73Zm-0.48-10a4.77,4.77,0,0,1,.21,2.93,29.06,29.06,0,0,1-1.56,4.13,31.8,31.8,0,0,1-2.49-3.35,4.76,4.76,0,0,0-3.47-2.31,14.15,14.15,0,0,1-1.91-.35,13.26,13.26,0,0,1-1.85-1,7,7,0,0,1,1.09-1.84A6.51,6.51,0,0,1,135.39,445.72Zm-5.12,11.87c-0.49.71-2.06,0.77-3.17,0.91a26.69,26.69,0,0,1-3.4,0v-0.1c-1.67,0-3.36.1-5,0-2-.15-2.25-0.64-1.22-2.36,2.69-4.52,7-5.55,10.88-2.6a4,4,0,0,1,.73.63C129.89,455.13,131.15,456.32,130.26,457.6Zm-11.18-27.74c0.89-1.7,3.76-2,5.53-.8a6.11,6.11,0,0,1,2,7.74,1.83,1.83,0,0,1-.87.66c-0.93.41-1.88,0.77-2.82,1.15l0.32-.39c-1.18-.94-2.34-1.89-3.54-2.8C117.31,433.63,118,431.94,119.08,429.86Zm-0.65,11.24c0.46,0.46.33,1.8,0.09,2.61a37.56,37.56,0,0,1-1.67,3.77c-0.4.93-.58,2-1.07,2.85-1.18,2.16-2.19,2.3-4.07.69a5.51,5.51,0,0,1-1-1c-1.29-1.9-3-2.74-4.78-2.3-3.26.15-3.26,0.15-4.07-2.59l-0.15-.47c-0.3-.91-1.14-2.21-0.81-2.66a13.12,13.12,0,0,1,4-4C110.3,435.09,114.83,437.54,118.43,441.1Zm-7.3,16.73a2.26,2.26,0,0,1-1.58.73,21.47,21.47,0,0,1-2.75,0v-0.07c-1.67-.13-3.34-0.21-5-0.4s-2.21-1.16-1.33-2.7c2-3.53,5.71-4,8.56-1.15a14,14,0,0,1,1.83,1.81A2.1,2.1,0,0,1,111.13,457.83Zm-37.2-28.66a16.73,16.73,0,0,1,11.38-5.61c6.13,0.1,7.17,2.15,9.38,7.09,0.46,1,.81,2.12,1.23,3.16a2.8,2.8,0,0,0,3.3,1.67c1.44-.43,1.47-1.54,1.3-2.74s-0.31-2.25-.46-3.38c-0.22-1.68.76-2.86,1.7-4,3.31-4.17,8.53-4.65,12-1.15,1.35,1.36,1.9,2.8,1.05,4.67a11.4,11.4,0,0,0-.54,2.52,1.17,1.17,0,0,1-1.59,1.11c-5.41-1.07-9.65,1.37-13.43,4.78-1.1,1-1.92,1.08-2.93.29-3.87-3.06-7.72-2.8-11.59,0-1.29.92-2.43,0.95-3.55-.32A29,29,0,0,0,78,434a9.73,9.73,0,0,0-3.11-1.81C73,431.54,72.6,430.62,73.93,429.17ZM96.7,451.79a21.06,21.06,0,0,0-2,4.3c-0.46,1.31-1,1.9-2.56,1.8-2.21-.14-4.44.12-6.66,0.16-2,0-2.94-.74-2.9-2.81A8.14,8.14,0,0,0,81,450.4c-1.68-2.49-1.65-3.36.09-5.8,1.41-2,4.77-3.87,6.7-3.79a13.32,13.32,0,0,1,8.8,4C98.14,446.3,98,449.7,96.7,451.79Zm-20.2,6.72c-1.85.32-3.73,0.53-5.59,0.79l0-.19c-1.24,0-2.49.09-3.73,0-1.81-.17-2.53-1.5-1.48-2.93a14.81,14.81,0,0,1,3.22-3.33c3.11-2.22,7.88-.43,9,3.25C78.23,457.31,77.87,458.27,76.51,458.51Zm-4.86-22.19c1.85-.16,3.53,1.11,4.83,2.83a2.84,2.84,0,0,1,.21,2.38,17.77,17.77,0,0,1-2.31,3.87,3.61,3.61,0,0,1-1.82.76c-1.58.45-3.17,0.87-4.77,1.25a2.42,2.42,0,0,1-1.61.07,28.8,28.8,0,0,1-3.93-3.36c-1.46-1.55-1.25-2.93.25-4.26A13.67,13.67,0,0,1,71.65,436.32Zm-10.28-8.81c1.72,0.52,3.32,3,2.94,4.71a2.71,2.71,0,0,1-1,1.34c-1.34,1.06-2.83,1.94-4.08,3.08a12.34,12.34,0,0,0-1.76,2.63c-1,1.63-2.72,1.83-3.7.21a36.72,36.72,0,0,1-2.11-4.79C52,430,57,426.2,61.37,427.51ZM47.52,445.72a16.08,16.08,0,0,1,13.57,4.76c1.61,1.64,1.45,2.09.14,4a7,7,0,0,0-.9,3.35c-0.16,2.21-.37,2.51-2.61,2.52H51.38v0c-2,0-3.92-.11-5.86,0-2.79.2-4.32-1.17-5.15-3.65C38.35,450.64,41.48,446.27,47.52,445.72Zm87.65,30.2c-1.42,1.32-2.82,2.67-4.32,3.9a8.65,8.65,0,0,1-5.73,1.79c-10.91.07-21.81,0.17-32.72,0.38-10.41.2-20.82,0.58-31.24,0.78-3.69.07-7.38-.14-11.06-0.24a5.62,5.62,0,0,1-5.65-4.16c-1-3.26-1-3.45,2.48-3.33,28.54,1,57.07-.76,85.61-0.39,1,0,2,0,3.45,0A8,8,0,0,1,135.16,475.91Zm15.54-10.16a23.76,23.76,0,0,0-3.39,3.27c-1.52,2.1-2.39,2.42-4.8,1.28a6.24,6.24,0,0,0-2.57-.73q-45.84.3-91.68,0.73c-4,0-8.07.74-12.11,1.15a3.24,3.24,0,0,0-.93.28c-1,.43-2.19,1.05-2.89-0.14A24.6,24.6,0,0,1,30.53,467a1.56,1.56,0,0,1,.9-0.72,12.84,12.84,0,0,1,2.57-.37c10.36-.35,20.72-0.63,31.08-1,8.4-.33,16.8-1,25.2-1.14,16.34-.2,32.68-0.09,49-0.12,3.53,0,7.06-.07,10.58-0.08,0.79,0,1.58.12,2.37,0.19l0.22,0.53C151.88,464.78,151.27,465.24,150.7,465.75Z" transform="translate(-24.35 -387.64)"/><path class="cls-1" d="M71.39,414.24a1,1,0,0,0,1-.25,1.25,1.25,0,0,0,.11-1.11,11.92,11.92,0,0,0-1.93-2.57c-1.68-1.53-1.31-3.28-.17-4.77,1-1.27,2.24-2.32,3.22-3.59a9.35,9.35,0,0,0,2-3.42c0.92-4.31-1.38-7.58-4-10.59a2.15,2.15,0,0,0-2.11-.08A2.37,2.37,0,0,0,69,390a23.58,23.58,0,0,0,1.52,2.84c1.18,2.49,2.3,5,.09,7.56-0.56.65-1.2,1.24-1.71,1.92-1.24,1.66-3,3.06-2.89,4.87A8,8,0,0,0,71.39,414.24Z" transform="translate(-24.35 -387.64)"/><path class="cls-1" d="M91.39,408c1.91,1.35,3.28,3,2.19,5.57a2.69,2.69,0,0,0,0,1h0c0,0.27,0,.54,0,0.81,0,1.1.33,2,1.48,2.19,1.3,0.17,1.77-.89,2-1.91a27.46,27.46,0,0,0,.42-3.71,4.75,4.75,0,0,0-2-4.66,2.1,2.1,0,0,1-.68-3.1c0.59-1,1.18-2,1.75-3.08a5.16,5.16,0,0,0,.26-4.68,2,2,0,0,0-1.1-1,1.49,1.49,0,0,0-1,.79c-1.42,2.82-2.85,5.65-4.12,8.54A2.48,2.48,0,0,0,91.39,408Z" transform="translate(-24.35 -387.64)"/><path class="cls-1" d="M116.82,410.31a11.41,11.41,0,0,0-1.15,3,1.88,1.88,0,0,0,.52,1.64,2.1,2.1,0,0,0,1.88,0,5.89,5.89,0,0,0,1.68-2,19.16,19.16,0,0,0,.77-2.29c1.26-3.2,1.11-6.1-1.53-8.62a3.19,3.19,0,0,1-.73-4,19.83,19.83,0,0,0,.81-2.9c-0.36-.42-0.87-1.45-1.28-1.41a3.41,3.41,0,0,0-2.4,1.16c-1.8,2.91-1.45,5.5.84,8.3S118.63,407,116.82,410.31Z" transform="translate(-24.35 -387.64)"/></svg>